<?xml version="1.0" encoding="UTF-8"?>
<svg width="24px" height="24px" viewBox="0 0 24 24" version="1.1" xmlns="http://www.w3.org/2000/svg" xmlns:xlink="http://www.w3.org/1999/xlink">
    <!-- Generator: Sketch 58 (84663) - https://sketch.com -->
    <title>苹果</title>
    <desc>Created with Sketch.</desc>
    <g id="页面-1" stroke="none" stroke-width="1" fill="none" fill-rule="evenodd">
        <g id="1手机未连接PC" transform="translate(-992.000000, -617.000000)" fill="#536076">
            <g id="编组" transform="translate(980.000000, 605.000000)">
                <g id="苹果" transform="translate(12.000000, 12.000000)">
                    <path d="M19.7184466,15.7907445 C20.381877,16.7243461 21.1423948,17.3279678 22,17.6016097 C21.6278317,18.7444668 21.0372168,19.9356137 20.2281553,21.1750503 C18.9822006,23.0422535 17.7524272,23.9758551 16.538835,23.9758551 C16.0857605,23.9758551 15.4142395,23.8229376 14.5242718,23.5171026 C13.6990291,23.2112676 12.9789644,23.0583501 12.3640777,23.0583501 C11.7491909,23.0583501 11.0695793,23.2193159 10.3252427,23.5412475 C9.54854369,23.8470825 8.90938511,24 8.40776699,24 C6.95145631,24 5.51941748,22.7686117 4.11165049,20.305835 C2.7038835,17.8752515 2,15.4849095 2,13.1348089 C2,10.9617706 2.53398058,9.18309859 3.60194175,7.79879276 C4.70226537,6.41448692 6.06148867,5.722334 7.67961165,5.722334 C8.03559871,5.722334 8.43203883,5.7665996 8.86893204,5.85513078 C9.30582524,5.94366197 9.75889968,6.10865191 10.2281553,6.3501006 C10.7297735,6.62374245 11.1423948,6.81287726 11.4660194,6.91750503 C11.789644,7.0221328 12.0404531,7.07444668 12.2184466,7.07444668 C12.4288026,7.07444668 12.7524272,7.02615694 13.1893204,6.92957746 C13.6262136,6.83299799 14.0631068,6.65593561 14.5,6.39839034 C14.9692557,6.14084507 15.3737864,5.94768612 15.7135922,5.81891348 C16.0533981,5.69014085 16.4012945,5.62575453 16.7572816,5.62575453 C17.8899676,5.62575453 18.9093851,5.93158954 19.815534,6.54325956 C20.3009709,6.86519115 20.7944984,7.34004024 21.2961165,7.96780684 C20.5517799,8.61167002 20.0097087,9.1750503 19.6699029,9.65794769 C19.038835,10.5593561 18.723301,11.5412475 18.723301,12.6036217 C18.723301,13.778672 19.0550162,14.8410463 19.7184466,15.7907445 L19.7184466,15.7907445 Z M14.8398058,4.51509054 C14.2734628,5.04627767 13.7556634,5.39235412 13.2864078,5.55331992 C13.1245955,5.60160966 12.9182848,5.64587525 12.6674757,5.6861167 C12.4166667,5.72635815 12.1294498,5.76257545 11.8058252,5.79476861 C11.8220065,4.37826962 12.1941748,3.15492958 12.9223301,2.12474849 C13.6504854,1.0945674 14.8478964,0.386317907 16.5145631,0 C16.5469256,0.160965795 16.5711974,0.273641851 16.5873786,0.338028169 L16.5873786,0.60362173 C16.5873786,1.18309859 16.4498382,1.83501006 16.1747573,2.55935614 C15.8834951,3.26760563 15.4385113,3.9195171 14.8398058,4.51509054 Z" id="形状"></path>
                </g>
            </g>
        </g>
    </g>
</svg>