<?xml version="1.0" encoding="UTF-8"?>
<svg width="30px" height="30px" viewBox="0 0 30 30" version="1.1" xmlns="http://www.w3.org/2000/svg" xmlns:xlink="http://www.w3.org/1999/xlink">
    <title>export_checked</title>
    <g id="页面-深色" stroke="none" stroke-width="1" fill="none" fill-rule="evenodd">
        <g id="按钮" transform="translate(-287.000000, -360.000000)" fill="#FFFFFF">
            <g id="导出" transform="translate(287.000000, 360.000000)">
                <path d="M22,17.5357143 L22,20.3214286 C22,21.8214286 20.9,23 19.5,23 L10.5,23 C9.1,23 8,21.8214286 8,20.3214286 L8,10.6785714 C8,9.17857143 9.1,8 10.5,8 L14.1666667,8 C14.4666667,8 14.6577759,8.16540309 14.6577759,8.48683167 C14.6577759,8.80826024 14.4666667,8.93120575 14.1666667,8.93120575 L10.5,8.93120575 C9.7,8.93120575 9,9.82142857 9,10.6785714 L9,20.3214286 C9,21.1785714 9.7,22.0490532 10.5,22.0490532 L19.5,22.0490532 C20.3,22.0490532 21.0763509,21.1785714 21.0763509,20.3214286 L21.0763509,17.5357143 C21.0763509,17.2142857 21.2,17 21.5,17 C21.8,17 22,17.2142857 22,17.5357143 Z" id="形状" transform="translate(15.000000, 15.500000) scale(1, -1) translate(-15.000000, -15.500000) "></path>
                <g id="编组-2" transform="translate(18.500000, 18.500000) rotate(-270.000000) translate(-18.500000, -18.500000) translate(14.000000, 14.000000)">
                    <rect id="矩形" x="4" y="0" width="1" height="9" rx="0.5"></rect>
                    <path d="M4.82842712,3.70710678 L4.47487373,4.06066017 C4.27961159,4.25592232 3.9630291,4.25592232 3.76776695,4.06066017 L0.939339828,1.23223305 C0.744077682,1.0369709 0.744077682,0.720388412 0.939339828,0.525126266 C1.13460197,0.32986412 1.45118446,0.32986412 1.64644661,0.525126266 L4.82842712,3.70710678 L4.82842712,3.70710678 Z" id="矩形" transform="translate(2.707107, 2.292893) rotate(270.000000) translate(-2.707107, -2.292893) "></path>
                    <path d="M7.9254691,0.753960008 L8.18713074,1.16620026 L8.18713074,1.16620026 L5.11605683,4.12877073 C4.91983764,4.31805734 4.60814822,4.315255 4.41536415,4.12247093 L4.40906334,4.11617012 C4.21380119,3.92090797 4.21380119,3.60432549 4.40906334,3.40906334 L7.14977307,0.66835361 C7.34503522,0.473091464 7.6616177,0.473091464 7.85687985,0.66835361 C7.8828134,0.694287163 7.90581488,0.722995353 7.9254691,0.753960008 Z" id="矩形" transform="translate(6.121320, 2.348403) rotate(270.000000) translate(-6.121320, -2.348403) "></path>
                </g>
            </g>
        </g>
    </g>
</svg>