<?xml version="1.0" encoding="UTF-8"?>
<svg width="68px" height="68px" viewBox="0 0 68 68" version="1.1" xmlns="http://www.w3.org/2000/svg" xmlns:xlink="http://www.w3.org/1999/xlink">
    <title>照片</title>
    <defs>
        <linearGradient x1="50%" y1="0%" x2="50%" y2="98.0310694%" id="linearGradient-1">
            <stop stop-color="#FFDF24" offset="0%"></stop>
            <stop stop-color="#FFB533" offset="100%"></stop>
        </linearGradient>
        <linearGradient x1="50%" y1="0%" x2="50%" y2="100%" id="linearGradient-2">
            <stop stop-color="#FFFFFF" offset="0%"></stop>
            <stop stop-color="#FFFFFF" stop-opacity="0.6" offset="100%"></stop>
        </linearGradient>
        <path d="M44.5714286,20 C47.017261,20 49,22.0147186 49,24.5 L49,42.5 C49,44.9852814 47.017261,47 44.5714286,47 L22.4285714,47 C19.982739,47 18,44.9852814 18,42.5 L18,24.5 C18,22.0147186 19.982739,20 22.4285714,20 L44.5714286,20 Z M36.4263956,32.4081961 L32.744934,37.5812183 C32.416566,38.0426262 31.8191632,38.0530061 31.4325612,37.6285187 L29.0554766,35.01849 C28.4656928,34.6179533 27.4874813,34.6729347 27.0026818,35.1338696 L20.2537979,41.5505362 C19.6156731,42.1572489 20.2542852,43 21.3521565,43 L45.6481387,43 C46.6973126,43 47.3453581,42.2226977 46.8055627,41.6117168 L38.7069018,32.4450501 C38.1970932,31.8680106 36.9760425,31.8482779 36.4263956,32.4081961 Z M26.75,23 C24.6789322,23 23,24.6789322 23,26.75 C23,28.8210678 24.6789322,30.5 26.75,30.5 C28.8210678,30.5 30.5,28.8210678 30.5,26.75 C30.5,24.6789322 28.8210678,23 26.75,23 Z" id="path-3"></path>
        <filter x="-1.6%" y="-1.9%" width="103.2%" height="107.4%" filterUnits="objectBoundingBox" id="filter-4">
            <feOffset dx="0" dy="1" in="SourceAlpha" result="shadowOffsetOuter1"></feOffset>
            <feColorMatrix values="0 0 0 0 0.784313725   0 0 0 0 0.0392156863   0 0 0 0 0.0392156863  0 0 0 0.2 0" type="matrix" in="shadowOffsetOuter1"></feColorMatrix>
        </filter>
    </defs>
    <g id="页面-1备份" stroke="none" stroke-width="1" fill="none" fill-rule="evenodd">
        <g id="1-首页-ANDROID-手机" transform="translate(-1288.000000, -342.000000)">
            <g id="编组-5" transform="translate(1092.000000, 325.000000)">
                <g id="编组-4" transform="translate(196.000000, 17.000000)">
                    <g id="照片">
                        <path d="M23.0749668,-9.32256277e-16 L44.9250332,9.32256277e-16 C52.9487019,-5.41667744e-16 55.858278,0.8354305 58.7916113,2.40419433 C61.7249447,3.97295817 64.0270418,6.27505533 65.5958057,9.20838867 C67.1645695,12.141722 68,15.0512981 68,23.0749668 L68,44.9250332 C68,52.9487019 67.1645695,55.858278 65.5958057,58.7916113 C64.0270418,61.7249447 61.7249447,64.0270418 58.7916113,65.5958057 C55.858278,67.1645695 52.9487019,68 44.9250332,68 L23.0749668,68 C15.0512981,68 12.141722,67.1645695 9.20838867,65.5958057 C6.27505533,64.0270418 3.97295817,61.7249447 2.40419433,58.7916113 C0.8354305,55.858278 3.61111829e-16,52.9487019 -6.21504185e-16,44.9250332 L6.21504185e-16,23.0749668 C-3.61111829e-16,15.0512981 0.8354305,12.141722 2.40419433,9.20838867 C3.97295817,6.27505533 6.27505533,3.97295817 9.20838867,2.40419433 C12.141722,0.8354305 15.0512981,5.41667744e-16 23.0749668,-9.32256277e-16 Z" id="Rectangle" fill="url(#linearGradient-1)"></path>
                        <g id="形状" fill-rule="nonzero">
                            <use fill="black" fill-opacity="1" filter="url(#filter-4)" xlink:href="#path-3"></use>
                            <use fill="url(#linearGradient-2)" xlink:href="#path-3"></use>
                        </g>
                    </g>
                </g>
            </g>
        </g>
    </g>
</svg>