<?xml version="1.0" encoding="UTF-8"?>
<svg width="68px" height="68px" viewBox="0 0 68 68" version="1.1" xmlns="http://www.w3.org/2000/svg" xmlns:xlink="http://www.w3.org/1999/xlink">
    <title>音乐</title>
    <defs>
        <linearGradient x1="50%" y1="0%" x2="50%" y2="98.0310694%" id="linearGradient-1">
            <stop stop-color="#8DF34C" offset="0%"></stop>
            <stop stop-color="#00CCB3" offset="100%"></stop>
        </linearGradient>
        <linearGradient x1="50%" y1="0%" x2="50%" y2="100%" id="linearGradient-2">
            <stop stop-color="#FFFFFF" offset="0%"></stop>
            <stop stop-color="#FFFFFF" stop-opacity="0.6" offset="100%"></stop>
        </linearGradient>
        <path d="M28.9797488,37.0948647 C28.9844222,37.0612972 29,37.0335675 29,37 L29,26.2802902 L45,30.7035327 L45,40.5 C45,40.5 44.0199615,40.190447 43.1429297,40.190447 C42.2456468,40.190447 41.3281128,40.4137439 40.4900256,40.8340674 C39.382442,41.3915799 38.5163148,42.2380648 38.0536533,43.2202792 C37.5613939,44.2637907 37.5738562,45.3364915 38.0894823,46.2384357 C38.7203843,47.341785 40.021133,48 41.5664535,48 C42.4621787,48 43.3797127,47.7781626 44.2193577,47.3563796 C46.0700037,46.4267056 47.1121604,44.7308169 46.9797488,43.1735766 C46.9844222,43.1414685 47,43.1137388 47,43.0801713 L47,24.1291256 C47,23.79491 46.7569859,23.5030186 46.4111581,23.421289 C46.4111581,23.421289 28.131692,19.1046454 27.7177643,19.021027 C27.3038365,18.9374086 27,19.2752437 27,19.5 L27,35 C26.3581935,34.6147034 25.3265677,34.35262 24.4495359,34.35262 C23.552253,34.35262 22.634719,34.5759169 21.7966318,34.9962404 C20.6890482,35.5537529 19.822921,36.4002378 19.3602595,37.3824522 C18.8680001,38.4259638 18.8804624,39.4986645 19.3960885,40.4006088 C20.0269905,41.5054175 21.3277392,42.1636325 22.8730597,42.1636325 C27,42 29.1121604,38.652105 28.9797488,37.0948647 Z" id="path-3"></path>
        <filter x="-1.8%" y="-1.7%" width="103.6%" height="106.9%" filterUnits="objectBoundingBox" id="filter-4">
            <feOffset dx="0" dy="1" in="SourceAlpha" result="shadowOffsetOuter1"></feOffset>
            <feColorMatrix values="0 0 0 0 0.00509223978   0 0 0 0 0.663128397   0 0 0 0 0.582486711  0 0 0 1 0" type="matrix" in="shadowOffsetOuter1"></feColorMatrix>
        </filter>
    </defs>
    <g id="页面-1备份" stroke="none" stroke-width="1" fill="none" fill-rule="evenodd">
        <g id="1-首页-ANDROID-手机" transform="translate(-1123.000000, -502.000000)">
            <g id="编组-5" transform="translate(1092.000000, 325.000000)">
                <g id="deepin-multitasking-view" transform="translate(31.000000, 177.000000)">
                    <g id="Group-63-Copy">
                        <g id="音乐">
                            <rect id="Rectangle" fill="url(#linearGradient-1)" x="0" y="0" width="68" height="68" rx="18"></rect>
                            <g id="Shape" fill-rule="nonzero">
                                <use fill="black" fill-opacity="1" filter="url(#filter-4)" xlink:href="#path-3"></use>
                                <use fill="url(#linearGradient-2)" xlink:href="#path-3"></use>
                            </g>
                        </g>
                    </g>
                </g>
            </g>
        </g>
    </g>
</svg>