<?xml version="1.0" encoding="UTF-8"?>
<svg width="30px" height="30px" viewBox="0 0 30 30" version="1.1" xmlns="http://www.w3.org/2000/svg" xmlns:xlink="http://www.w3.org/1999/xlink">
    <title>删除 copy 3</title>
    <g id="页面-深色" stroke="none" stroke-width="1" fill="none" fill-rule="evenodd">
        <g id="按钮" transform="translate(-226.000000, -256.000000)" fill="#FFFFFF">
            <g id="删除-copy-3" transform="translate(226.000000, 256.000000)">
                <g id="删除-copy-2" transform="translate(7.000000, 7.000000)">
                    <path d="M9,0 L6,0 L5,0 L5,1 L6,1 L9,1 L10,1 L10,0 L9,0 Z M0,3 L1,3 L14,3 L15,3 L15,2 L14,2 L1,2 L0,2 L0,3 Z M2,5 L2,16 L3,16 L12,16 L13,16 L13,5 L13,4 L12,4 L12,5 L12,15 L3,15 L3,5 L3,4 L2,4 L2,5 Z M5,6 L5,13 L5,14 L6,14 L6,13 L6,6 L6,5 L5,5 L5,6 Z M7,6 L7,13 L7,14 L8,14 L8,13 L8,6 L8,5 L7,5 L7,6 Z M9,6 L9,13 L9,14 L10,14 L10,13 L10,6 L10,5 L9,5 L9,6 Z" id="line34500"></path>
                </g>
            </g>
        </g>
    </g>
</svg>