<?xml version="1.0" encoding="UTF-8"?>
<svg width="30px" height="30px" viewBox="0 0 30 30" version="1.1" xmlns="http://www.w3.org/2000/svg" xmlns:xlink="http://www.w3.org/1999/xlink">
    <title>导出</title>
    <g id="页面-1备份" stroke="none" stroke-width="1" fill="none" fill-rule="evenodd">
        <g id="应用android" transform="translate(-1496.000000, -272.000000)" fill="#536076">
            <g id="编组-4" transform="translate(741.000000, 232.000000)">
                <g id="编组-3">
                    <g id="2" transform="translate(10.000000, 37.000000)">
                        <g id="导出" transform="translate(745.000000, 3.000000)">
                            <path d="M22,17.5357143 L22,20.3214286 C22,21.8214286 20.9,23 19.5,23 L10.5,23 C9.1,23 8,21.8214286 8,20.3214286 L8,10.6785714 C8,9.17857143 9.1,8 10.5,8 L14.1666667,8 C14.4666667,8 14.6577759,8.16540309 14.6577759,8.48683167 C14.6577759,8.80826024 14.4666667,8.93120575 14.1666667,8.93120575 L10.5,8.93120575 C9.7,8.93120575 9,9.82142857 9,10.6785714 L9,20.3214286 C9,21.1785714 9.7,22.0490532 10.5,22.0490532 L19.5,22.0490532 C20.3,22.0490532 21.0763509,21.1785714 21.0763509,20.3214286 L21.0763509,17.5357143 C21.0763509,17.2142857 21.2,17 21.5,17 C21.8,17 22,17.2142857 22,17.5357143 Z" id="形状" fill-rule="nonzero" transform="translate(15.000000, 15.500000) scale(1, -1) translate(-15.000000, -15.500000) "></path>
                            <g id="编组-2" transform="translate(18.500000, 18.500000) rotate(-270.000000) translate(-18.500000, -18.500000) translate(14.000000, 14.000000)">
                                <rect id="矩形" x="4" y="0" width="1" height="9" rx="0.5"></rect>
                                <path d="M2.20710678,-0.207106781 L2.70710678,-0.207106781 C2.98324916,-0.207106781 3.20710678,0.0167508439 3.20710678,0.292893219 L3.20710678,4.29289322 C3.20710678,4.56903559 2.98324916,4.79289322 2.70710678,4.79289322 C2.43096441,4.79289322 2.20710678,4.56903559 2.20710678,4.29289322 L2.20710678,-0.207106781 L2.20710678,-0.207106781 Z" id="矩形" transform="translate(2.707107, 2.292893) rotate(-315.000000) translate(-2.707107, -2.292893) "></path>
                                <path d="M6.21782413,-0.101270399 L6.69434472,0.00520475784 L6.69434472,0.00520475784 L6.61762121,4.27163561 C6.61271913,4.54422938 6.39033988,4.76264553 6.11770203,4.76264553 L6.10879134,4.76264553 C5.83264897,4.76264553 5.60879134,4.53878791 5.60879134,4.26264553 L5.60879134,0.38669666 C5.60879134,0.110554285 5.83264897,-0.11330334 6.10879134,-0.11330334 C6.14546692,-0.11330334 6.18203118,-0.109268081 6.21782413,-0.101270399 Z" id="矩形" transform="translate(6.151568, 2.262646) rotate(-45.000000) translate(-6.151568, -2.262646) "></path>
                            </g>
                        </g>
                    </g>
                </g>
            </g>
        </g>
    </g>
</svg>