<?xml version="1.0" encoding="UTF-8"?>
<svg width="16px" height="16px" viewBox="0 0 16 16" version="1.1" xmlns="http://www.w3.org/2000/svg" xmlns:xlink="http://www.w3.org/1999/xlink">
    <!-- Generator: Sketch 58 (84663) - https://sketch.com -->
    <title>安卓选中</title>
    <desc>Created with Sketch.</desc>
    <g id="页面-1" stroke="none" stroke-width="1" fill="none" fill-rule="evenodd">
        <g id="3-断开立即连接" transform="translate(-528.000000, -274.000000)" fill="#FFFFFF">
            <g id="安卓选中" transform="translate(528.000000, 274.000000)">
                <path d="M13.1428571,6.24995737 C12.6714286,6.24995737 12.2857143,6.64370929 12.2857143,7.12496163 L12.2857143,10.6249787 C12.2857143,11.106231 12.6714286,11.4999829 13.1428571,11.4999829 C13.6142857,11.4999829 14,11.106231 14,10.6249787 L14,7.12496163 C14,6.64370929 13.6142857,6.24995737 13.1428571,6.24995737 Z M2.85714286,6.24995737 C2.38571429,6.24995737 2,6.64370929 2,7.12496163 L2,10.6249787 C2,11.106231 2.38571429,11.4999829 2.85714286,11.4999829 C3.32857143,11.4999829 3.71428571,11.106231 3.71428571,10.6249787 L3.71428571,7.12496163 C3.71428571,6.64370929 3.32857143,6.24995737 2.85714286,6.24995737 Z M4.14285714,11.0624808 C4.14285714,11.7874218 4.71842857,12.3749872 5.42857143,12.3749872 L5.42857143,14.1249957 C5.42857143,14.6062481 5.81428571,15 6.28571429,15 C6.75714286,15 7.14285714,14.6062481 7.14285714,14.1249957 L7.14285714,12.3749872 L8.85714286,12.3749872 L8.85714286,14.1249957 C8.85714286,14.6062481 9.24285714,15 9.71428571,15 C10.1857143,15 10.5714286,14.6062481 10.5714286,14.1249957 L10.5714286,12.3749872 C11.2815714,12.3749872 11.8571429,11.7874218 11.8571429,11.0624808 L11.8571429,6.24995737 L4.14285714,6.24995737 L4.14285714,11.0624808 Z M11.8331429,5.37495311 C11.7028571,4.17357226 11.0428571,3.1353797 10.097,2.50887665 L10.526,1.63343488 C10.6318571,1.41730883 10.5461429,1.15437005 10.3344286,1.04630702 C10.1227143,0.938243995 9.86514286,1.02574442 9.75928571,1.24187047 L9.329,2.12081226 L9.21714286,2.07531203 C8.83442857,1.9453739 8.42514286,1.87493606 8,1.87493606 C7.57485714,1.87493606 7.16557143,1.9453739 6.78285714,2.07531203 L6.671,2.12081226 L6.24071429,1.24187047 C6.13485714,1.02574442 5.87728571,0.938243995 5.66557143,1.04630702 C5.45385714,1.15437005 5.36814286,1.41730883 5.474,1.63343488 L5.903,2.50887665 C4.95714286,3.1358172 4.29714286,4.17357226 4.16685714,5.37495311 L4.16685714,5.81245524 L11.8571429,5.81245524 L11.8571429,5.37495311 L11.8331429,5.37495311 Z M6.71428571,4.49994885 C6.47771429,4.49994885 6.28571429,4.30394789 6.28571429,4.06244671 C6.28571429,3.82094554 6.47728571,3.62538209 6.71342857,3.62494458 L6.71557143,3.62494458 C6.95171429,3.62538209 7.14328571,3.82094554 7.14328571,4.06244671 C7.14328571,4.30394789 6.95128571,4.49994885 6.71471429,4.49994885 L6.71428571,4.49994885 Z M9.28571429,4.49994885 C9.04914286,4.49994885 8.85714286,4.30394789 8.85714286,4.06244671 C8.85714286,3.82094554 9.04828571,3.62538209 9.28485714,3.62494458 L9.287,3.62494458 C9.52314286,3.62538209 9.71471429,3.82094554 9.71471429,4.06244671 C9.71471429,4.30394789 9.52271429,4.49994885 9.28614286,4.49994885 L9.28571429,4.49994885 Z" id="形状"></path>
            </g>
        </g>
    </g>
</svg>