<?xml version="1.0" encoding="UTF-8"?>
<svg width="118px" height="215px" viewBox="0 0 118 215" version="1.1" xmlns="http://www.w3.org/2000/svg" xmlns:xlink="http://www.w3.org/1999/xlink">
    <title>apk安装失败</title>
    <defs>
        <rect id="path-1" x="0" y="0" width="31" height="31" rx="4"></rect>
        <filter x="-25.8%" y="-22.6%" width="151.6%" height="151.6%" filterUnits="objectBoundingBox" id="filter-3">
            <feOffset dx="0" dy="1" in="SourceAlpha" result="shadowOffsetOuter1"></feOffset>
            <feGaussianBlur stdDeviation="2.5" in="shadowOffsetOuter1" result="shadowBlurOuter1"></feGaussianBlur>
            <feColorMatrix values="0 0 0 0 0   0 0 0 0 0   0 0 0 0 0  0 0 0 0.02 0" type="matrix" in="shadowBlurOuter1"></feColorMatrix>
        </filter>
        <linearGradient x1="50%" y1="0%" x2="50%" y2="100%" id="linearGradient-4">
            <stop stop-color="#FF674A" offset="0%"></stop>
            <stop stop-color="#EC5783" offset="100%"></stop>
        </linearGradient>
        <path d="M6.49396429,0 C10.0871268,0 13,2.91086295 13,6.5 C13,10.089137 10.0871268,13 6.49396429,13 C2.90683877,13 0,10.0891408 0,6.5 C0,2.9108593 2.90683877,0 6.49396429,0 Z" id="path-5"></path>
        <filter x="-30.8%" y="-15.4%" width="161.5%" height="161.5%" filterUnits="objectBoundingBox" id="filter-6">
            <feOffset dx="0" dy="2" in="SourceAlpha" result="shadowOffsetOuter1"></feOffset>
            <feGaussianBlur stdDeviation="1" in="shadowOffsetOuter1" result="shadowBlurOuter1"></feGaussianBlur>
            <feColorMatrix values="0 0 0 0 1   0 0 0 0 0.443137255   0 0 0 0 0.443137255  0 0 0 0.3 0" type="matrix" in="shadowBlurOuter1"></feColorMatrix>
        </filter>
    </defs>
    <g id="页面-1备份" stroke="none" stroke-width="1" fill="none" fill-rule="evenodd">
        <g id="android-apk安装失败" transform="translate(-1098.000000, -384.000000)">
            <g id="手机授权" transform="translate(1098.000000, 384.000000)">
                <g id="手机" transform="translate(3.000000, 3.000000)">
                    <path d="M14,-1.5 C9.71979319,-1.5 5.84479319,0.234896594 3.03984489,3.03984489 C0.234896594,5.84479319 -1.5,9.71979319 -1.5,14 L-1.5,195 C-1.5,199.280207 0.234896594,203.155207 3.03984489,205.960155 C5.84479319,208.765103 9.71979319,210.5 14,210.5 L98,210.5 C102.280207,210.5 106.155207,208.765103 108.960155,205.960155 C111.765103,203.155207 113.5,199.280207 113.5,195 L113.5,14 C113.5,9.71979319 111.765103,5.84479319 108.960155,3.03984489 C106.155207,0.234896594 102.280207,-1.5 98,-1.5 L14,-1.5 Z" id="路径" stroke="#E6E6E6" stroke-width="3" fill="#FFFFFF" fill-rule="nonzero"></path>
                    <g id="编组-2" transform="translate(36.000000, 9.000000)" fill="#E6E6E6">
                        <rect id="矩形" x="9" y="0" width="31" height="4" rx="2"></rect>
                        <rect id="矩形" x="0" y="0" width="4" height="4" rx="2"></rect>
                    </g>
                    <g id="路径-2" transform="translate(8.000000, 20.000000)" fill="#E6E6E6" fill-rule="nonzero">
                        <path d="M95,159.810811 C95,160.763359 93.7969432,162 91.7977528,162 L3.20224719,162 C1.20305677,162 0,160.763359 0,158.716216 L0,3.28378378 C0,1.23664122 1.20305677,0 3.20224719,0 L91.7977528,0 C93.7969432,0 95,1.23664122 95,3.28378378 L95,159.810811 Z" id="路径"></path>
                    </g>
                    <rect id="矩形" fill="#E6E6E6" x="47" y="187" width="17" height="17" rx="8.5"></rect>
                </g>
                <g id="编组" transform="translate(44.000000, 85.000000)">
                    <g id="安卓" transform="translate(0.000000, 4.000000)">
                        <mask id="mask-2" fill="white">
                            <use xlink:href="#path-1"></use>
                        </mask>
                        <g id="蒙版">
                            <use fill="black" fill-opacity="1" filter="url(#filter-3)" xlink:href="#path-1"></use>
                            <use fill="#FFFFFF" fill-rule="evenodd" xlink:href="#path-1"></use>
                        </g>
                        <path d="M21.1428571,13.2499574 C20.6714286,13.2499574 20.2857143,13.6437093 20.2857143,14.1249616 L20.2857143,17.6249787 C20.2857143,18.106231 20.6714286,18.4999829 21.1428571,18.4999829 C21.6142857,18.4999829 22,18.106231 22,17.6249787 L22,14.1249616 C22,13.6437093 21.6142857,13.2499574 21.1428571,13.2499574 Z M10.8571429,13.2499574 C10.3857143,13.2499574 10,13.6437093 10,14.1249616 L10,17.6249787 C10,18.106231 10.3857143,18.4999829 10.8571429,18.4999829 C11.3285714,18.4999829 11.7142857,18.106231 11.7142857,17.6249787 L11.7142857,14.1249616 C11.7142857,13.6437093 11.3285714,13.2499574 10.8571429,13.2499574 Z M12.1428571,18.0624808 C12.1428571,18.7874218 12.7184286,19.3749872 13.4285714,19.3749872 L13.4285714,21.1249957 C13.4285714,21.6062481 13.8142857,22 14.2857143,22 C14.7571429,22 15.1428571,21.6062481 15.1428571,21.1249957 L15.1428571,19.3749872 L16.8571429,19.3749872 L16.8571429,21.1249957 C16.8571429,21.6062481 17.2428571,22 17.7142857,22 C18.1857143,22 18.5714286,21.6062481 18.5714286,21.1249957 L18.5714286,19.3749872 C19.2815714,19.3749872 19.8571429,18.7874218 19.8571429,18.0624808 L19.8571429,13.2499574 L12.1428571,13.2499574 L12.1428571,18.0624808 Z M19.8331429,12.3749531 C19.7028571,11.1735723 19.0428571,10.1353797 18.097,9.50887665 L18.526,8.63343488 C18.6318571,8.41730883 18.5461429,8.15437005 18.3344286,8.04630702 C18.1227143,7.93824399 17.8651429,8.02574442 17.7592857,8.24187047 L17.329,9.12081226 L17.2171429,9.07531203 C16.8344286,8.9453739 16.4251429,8.87493606 16,8.87493606 C15.5748571,8.87493606 15.1655714,8.9453739 14.7828571,9.07531203 L14.671,9.12081226 L14.2407143,8.24187047 C14.1348571,8.02574442 13.8772857,7.93824399 13.6655714,8.04630702 C13.4538571,8.15437005 13.3681429,8.41730883 13.474,8.63343488 L13.903,9.50887665 C12.9571429,10.1358172 12.2971429,11.1735723 12.1668571,12.3749531 L12.1668571,12.8124552 L19.8571429,12.8124552 L19.8571429,12.3749531 L19.8331429,12.3749531 Z M14.7142857,11.4999488 C14.4777143,11.4999488 14.2857143,11.3039479 14.2857143,11.0624467 C14.2857143,10.8209455 14.4772857,10.6253821 14.7134286,10.6249446 L14.7155714,10.6249446 C14.9517143,10.6253821 15.1432857,10.8209455 15.1432857,11.0624467 C15.1432857,11.3039479 14.9512857,11.4999488 14.7147143,11.4999488 L14.7142857,11.4999488 Z M17.2857143,11.4999488 C17.0491429,11.4999488 16.8571429,11.3039479 16.8571429,11.0624467 C16.8571429,10.8209455 17.0482857,10.6253821 17.2848571,10.6249446 L17.287,10.6249446 C17.5231429,10.6253821 17.7147143,10.8209455 17.7147143,11.0624467 C17.7147143,11.3039479 17.5227143,11.4999488 17.2861429,11.4999488 L17.2857143,11.4999488 Z" id="形状" fill="#E6E6E6" mask="url(#mask-2)"></path>
                    </g>
                    <g id="warning" transform="translate(23.000000, 0.000000)">
                        <g id="Shape">
                            <use fill="black" fill-opacity="1" filter="url(#filter-6)" xlink:href="#path-5"></use>
                            <use fill="url(#linearGradient-4)" fill-rule="evenodd" xlink:href="#path-5"></use>
                        </g>
                        <path d="M6,3 L7,3 L7,7 L6,7 L6,3 Z M6,8 L7,8 L7,9 L6,9 L6,8 Z" id="Combined-Shape" fill="#FFFFFF" fill-rule="nonzero" opacity="0.900000036"></path>
                    </g>
                </g>
            </g>
        </g>
    </g>
</svg>