<?xml version="1.0" encoding="UTF-8"?>
<svg width="118px" height="215px" viewBox="0 0 118 215" version="1.1" xmlns="http://www.w3.org/2000/svg" xmlns:xlink="http://www.w3.org/1999/xlink">
    <title>信任手机</title>
    <defs>
        <rect id="path-1" x="15" y="73" width="87" height="46" rx="4"></rect>
    </defs>
    <g id="页面-1备份" stroke="none" stroke-width="1" fill="none" fill-rule="evenodd">
        <g id="ios信任提示" transform="translate(-1098.000000, -384.000000)">
            <g id="信任手机" transform="translate(1098.000000, 384.000000)">
                <g id="手机" transform="translate(3.000000, 3.000000)">
                    <path d="M14,-1.5 C9.71979319,-1.5 5.84479319,0.234896594 3.03984489,3.03984489 C0.234896594,5.84479319 -1.5,9.71979319 -1.5,14 L-1.5,195 C-1.5,199.280207 0.234896594,203.155207 3.03984489,205.960155 C5.84479319,208.765103 9.71979319,210.5 14,210.5 L98,210.5 C102.280207,210.5 106.155207,208.765103 108.960155,205.960155 C111.765103,203.155207 113.5,199.280207 113.5,195 L113.5,14 C113.5,9.71979319 111.765103,5.84479319 108.960155,3.03984489 C106.155207,0.234896594 102.280207,-1.5 98,-1.5 L14,-1.5 Z" id="路径" stroke="#E6E6E6" stroke-width="3" fill="#FFFFFF" fill-rule="nonzero"></path>
                    <g id="编组-2" transform="translate(36.000000, 9.000000)" fill="#E6E6E6">
                        <rect id="矩形" x="9" y="0" width="31" height="4" rx="2"></rect>
                        <rect id="矩形" x="0" y="0" width="4" height="4" rx="2"></rect>
                    </g>
                    <g id="路径-2" transform="translate(8.000000, 20.000000)" fill="#E6E6E6" fill-rule="nonzero">
                        <path d="M95,159.810811 C95,160.763359 93.7969432,162 91.7977528,162 L3.20224719,162 C1.20305677,162 0,160.763359 0,158.716216 L0,3.28378378 C0,1.23664122 1.20305677,0 3.20224719,0 L91.7977528,0 C93.7969432,0 95,1.23664122 95,3.28378378 L95,159.810811 Z" id="路径"></path>
                    </g>
                    <rect id="矩形" fill="#E6E6E6" x="47" y="187" width="17" height="17" rx="8.5"></rect>
                </g>
                <mask id="mask-2" fill="white">
                    <use xlink:href="#path-1"></use>
                </mask>
                <use id="蒙版" fill="#FFFFFF" xlink:href="#path-1"></use>
                <path d="M15,105 L59,105 L59,119 L19,119 C16.790861,119 15,117.209139 15,115 L15,105 L15,105 Z" id="蒙版" fill="#F5F5F5" mask="url(#mask-2)"></path>
                <g id="编组" mask="url(#mask-2)" fill="#E6E6E6">
                    <g transform="translate(77.000000, 109.000000)" id="矩形">
                        <path d="M6.41347207,0.58652793 C6.7374025,0.910458361 6.7374025,1.43565336 6.41347207,1.75958379 L1.75958379,6.41347207 C1.43565336,6.7374025 0.910458361,6.7374025 0.58652793,6.41347207 C0.262597499,6.08954164 0.262597499,5.56434664 0.58652793,5.24041621 L5.24041621,0.58652793 C5.56434664,0.262597499 6.08954164,0.262597499 6.41347207,0.58652793 Z"></path>
                        <path d="M6.41347207,6.41347207 C6.08954164,6.7374025 5.56434664,6.7374025 5.24041621,6.41347207 L0.58652793,1.75958379 C0.262597499,1.43565336 0.262597499,0.910458361 0.58652793,0.58652793 C0.910458361,0.262597499 1.43565336,0.262597499 1.75958379,0.58652793 L6.41347207,5.24041621 C6.7374025,5.56434664 6.7374025,6.08954164 6.41347207,6.41347207 Z"></path>
                    </g>
                </g>
                <path d="M35.7500276,113.549442 L34.3356792,111.781506 C34.0769221,111.45806 33.6049528,111.405619 33.2815063,111.664376 C32.9580599,111.923133 32.9056188,112.395102 33.164376,112.718549 L35.164376,115.218549 C35.46462,115.593854 36.0354353,115.593854 36.3356792,115.218549 L40.3356792,110.218549 C40.5944364,109.895102 40.5419954,109.423133 40.2185489,109.164376 C39.8951025,108.905619 39.4231332,108.95806 39.164376,109.281506 L35.7500276,113.549442 Z" id="路径-4" fill="#0081FF" fill-rule="nonzero" mask="url(#mask-2)"></path>
                <path d="M58.6047572,130.772989 C58.7239186,129.089691 57.494046,124.504231 56.8394911,123.498966 C56.5060778,122.987108 56.3040975,121.732538 55.1480762,121.415577 C54.6509687,121.279208 54.2990093,121.423564 54.2588909,121.441237 C54.2578081,121.442406 54.2565587,121.443157 54.2549485,121.44299 C54.2549485,121.44299 54.2563366,121.44235 54.2588909,121.441237 C54.3002309,121.394899 53.9309748,120.359244 52.9847631,119.890384 C52.4393191,119.620094 51.776213,119.85824 51.7327074,119.874353 C51.7365387,119.887935 51.733929,119.888491 51.7303475,119.875244 C51.7303475,119.875244 51.7312081,119.87491 51.7327074,119.874353 C51.7143556,119.80884 51.5468577,119.440421 50.6187201,118.852224 C50.1947142,118.58327 49.3803519,118.119447 48.8770531,118.437577 C47.9367272,119.032231 48.119856,120.10941 48.0389251,120.148651 C48.0193517,120.158113 47.6153634,119.510498 47.1684525,118.629162 C46.9140823,118.127713 46.1751615,116.793657 46.1495635,116.740584 C45.6951379,115.880315 45.2466343,115 44.343705,115 C43.7417522,115 43.6124551,115.794954 43.9558136,117.384862 C44.111623,118.048173 44.3561927,118.771571 44.6492932,119.424474 C45.3677878,121.025811 45.8961016,122.447837 46.1254846,123.100211 C46.6410549,124.565792 46.6639599,128.727811 46.6639599,128.723581 L46.3612254,128.822463 C46.3612254,128.822463 46.1198486,128.223078 45.6202701,127.589183 C45.6464512,125.425364 44.0452402,124.712932 43.7415063,125.119312 C43.47939,125.47031 43.6105454,126.136405 43.4701725,126.752321 C43.3028968,127.486544 42.9963587,127.994144 43.0000327,128.383938 C43.0032163,128.7572 43.4144787,129.349015 43.8172732,130.129215 C44.1872789,130.845905 44.5325195,131.748559 44.9192388,132.183744 C45.335471,132.65163 46.8737418,133.479948 48.2170842,134.053312 C49.4811616,134.59261 49.9115531,134.552423 50.566358,134.892512 C51.220913,135.231709 51.3011498,136.454608 51.476005,136.589419 C52.7308649,137.559228 58.0200555,136.857677 59,133.98521 L58.6047572,130.772989 Z" id="路径" fill="#CFCFCF" fill-rule="nonzero"></path>
                <g id="连接" transform="translate(53.000000, 83.000000)" fill="#CFCFCF" fill-rule="nonzero">
                    <path d="M5.39338339,12.069137 C4.12920214,13.3431416 2.16021048,13.3048236 0.939141314,11.9824542 C-0.281927853,10.6600848 -0.316647981,8.52846261 0.860597632,7.16031018 L3.12699051,4.70505592 C4.37963082,3.34928691 6.41024274,3.34928691 7.66288305,4.70505592 C7.86016331,4.91862941 8.01550209,5.15742811 8.14909345,5.4063169 L7.09278971,6.54649661 C7.04308129,6.60031041 6.98249917,6.63226235 6.92347043,6.66757765 C6.8495651,6.39093613 6.71346862,6.13844167 6.52735653,5.93268305 C5.89962194,5.25691514 4.88559146,5.25691514 4.25785687,5.93268305 L1.99146399,8.38793731 C1.5866119,8.82622584 1.42849915,9.46504528 1.57668531,10.0637585 C1.72487146,10.6624718 2.1568435,11.1301201 2.70988175,11.2905448 C3.26291999,11.4509696 3.85300478,11.2797984 4.25785687,10.8415099 L5.06717194,9.96703577 C5.72114823,10.2394681 6.42483293,10.3151437 7.11143036,10.2075162 L5.39338339,12.069137 L5.39338339,12.069137 Z M11.0616957,5.93268305 L8.79374941,8.38625563 C8.16928749,9.06397307 7.3490987,9.4019966 6.52735653,9.4019966 C5.67618003,9.40365363 4.85946471,9.03812522 4.25785687,8.38625563 C4.06934513,8.17583049 3.90647104,7.94016436 3.77319986,7.68499465 L4.8295036,6.54649661 C4.87765862,6.49268282 4.93979414,6.46073088 4.99882288,6.4237339 C5.07183211,6.69280286 5.19765652,6.94841837 5.39338339,7.16031018 C6.01784531,7.83634594 7.03842113,7.83298258 7.66288305,7.16031018 L9.92927593,4.70505592 C10.5522808,4.02624893 10.5522808,2.93029033 9.92927593,2.25148334 C9.30295723,1.57518164 8.28920175,1.57518164 7.66288305,2.25148334 L6.85356798,3.12595746 C6.20293089,2.85533443 5.49860954,2.7719008 4.80930956,2.8837954 L6.52735653,1.02553789 C7.44206431,0.0265548879 8.82393824,-0.274484245 10.0243743,0.26371788 C11.2248104,0.801920004 12.0054714,2.07250752 11.9999711,3.47911047 C11.9999711,4.36703804 11.6892644,5.25496561 11.0616957,5.93268305 L11.0616957,5.93268305 Z" id="形状"></path>
                </g>
            </g>
        </g>
    </g>
</svg>