<?xml version="1.0" encoding="UTF-8"?>
<svg width="25px" height="25px" viewBox="0 0 25 25" version="1.1" xmlns="http://www.w3.org/2000/svg" xmlns:xlink="http://www.w3.org/1999/xlink">
    <!-- Generator: Sketch 58 (84663) - https://sketch.com -->
    <title>营销工具-主图视频</title>
    <desc>Created with Sketch.</desc>
    <g id="页面-1备份" stroke="none" stroke-width="1" fill="none" fill-rule="evenodd">
        <g id="视频列表-网格" transform="translate(-754.000000, -387.000000)" fill="#FFFFFF" fill-rule="nonzero">
            <g id="编组" transform="translate(747.000000, 278.000000)">
                <g id="编组-3" transform="translate(0.000000, 104.000000)">
                    <g id="营销工具-主图视频" transform="translate(7.000000, 5.000000)">
                        <path d="M16.3363128,7.56808528 C16.1335074,7.3960246 15.8937096,7.25819324 15.617137,7.15489589 C15.3413907,7.0523541 15.0472452,6.99978549 14.7504268,7 L6.13892237,7 C5.82546617,7 5.54889358,7.06886556 5.27232098,7.18932834 C5.01413578,7.32705814 4.79283419,7.48195337 4.59002879,7.67138262 C4.40561079,7.86071031 4.2581852,8.08457201 4.1475344,8.30833214 C4.0368836,8.53209228 4,8.75595398 4,8.97961254 L4,15.9515232 C4,16.2442498 4.055271,16.5197094 4.1659218,16.7607366 C4.2765726,17.0016621 4.42421579,17.2255238 4.62691239,17.4147499 C4.82982659,17.6041792 5.05101938,17.7590744 5.30920458,17.8451048 C5.56738978,17.9485037 5.86234977,18 6.17591477,18 L14.7874192,18 C15.0269994,18 15.2667972,17.9311351 15.5248736,17.7935069 C15.7831676,17.6557771 16.0227478,17.4836148 16.2440494,17.2771217 C16.4652422,17.070527 16.6313816,16.8467669 16.7786984,16.6229052 C16.926124,16.3991451 17,16.1753849 17,16.0030195 L17,14.2989688 C17,14.2645364 16.944729,14.1955699 16.8156908,14.0752087 C16.6731873,13.9427727 16.543601,13.7987522 16.4284674,13.6448539 C16.2782364,13.468752 16.1484018,13.2782948 16.0411352,13.0766677 C15.9118794,12.8701745 15.8567172,12.6463128 15.8567172,12.4225527 C15.8567172,12.1988942 15.9119882,11.9750324 16.0411352,11.7512723 C16.1702822,11.5275122 16.2992116,11.3381845 16.4284674,11.1487552 C16.5760018,10.9594276 16.7051488,10.8044308 16.8156908,10.666701 C16.9448378,10.5289712 17,10.4428393 17,10.3912414 L17,8.97961254 C17,8.70425452 16.944729,8.42879493 16.8340782,8.18776779 C16.7051488,7.96400765 16.5391182,7.75741296 16.3363128,7.56808528 Z M10.0084742,16 C8.34282706,16 7,14.6610331 7,13.00005 C7,11.339067 8.34272677,10 10.0084742,10 C11.6742215,10 13,11.3559678 13,13.0169508 C13,14.6779339 11.6571729,16 10.0084742,16 L10.0084742,16 Z M21.8870024,8.23651439 C21.7958748,8.08448366 21.5951142,8 21.2850436,8 C21.1392608,8 20.9933705,8.05071012 20.8110077,8.13509415 C20.6287524,8.21947818 20.5010445,8.30396183 20.3917344,8.37150891 C20.1364264,8.54037659 19.8081732,8.7936283 19.4070824,9.13136367 C19.0241742,9.46909904 18.6412659,9.82367136 18.2948302,10.2120172 C17.948287,10.6003631 17.6382163,11.0055459 17.3830158,11.4108283 C17.1276002,11.8160112 17,12.1876197 17,12.4914819 C17,12.8122807 17.1095253,13.166853 17.3464357,13.5384615 C17.5861905,13.9303458 17.8606972,14.3031041 18.1671224,14.6528886 C18.4771931,15.007461 18.7871562,15.3281601 19.0788293,15.615285 C19.3888999,15.9024099 19.6077354,16.1049515 19.7535181,16.2232087 C19.8081732,16.2738191 19.8993008,16.3414658 20.0270086,16.4257502 C20.154824,16.5102339 20.2821015,16.5946179 20.428207,16.6791016 C20.5739897,16.7634856 20.7016975,16.8310327 20.8474802,16.8985798 C20.9932629,16.9661268 21.1026807,17 21.1939159,17 C21.4492239,17 21.6496617,16.9155163 21.7773695,16.7297121 C21.9051849,16.5441071 21.9781301,16.3414658 21.9781301,16.1049515 L21.9781301,8.82750147 C22.0328927,8.59098708 21.9782377,8.40528244 21.8870024,8.23651439 Z" id="形状"></path>
                        <path d="M8,12.9997389 C7.99958242,14.1040692 8.89465588,14.9995822 9.99932128,15 C11.1039867,15.0004175 11.9996867,14.1055309 12,13.0010962 L12,12.9996345 C12,11.8951998 11.1046132,11 10.0000523,11 C8.89549133,11 8,11.8953042 8,12.9997389 L8,12.9997389 Z" id="路径"></path>
                    </g>
                </g>
            </g>
        </g>
    </g>
</svg>