<?xml version="1.0" encoding="UTF-8"?>
<svg width="118px" height="215px" viewBox="0 0 118 215" version="1.1" xmlns="http://www.w3.org/2000/svg" xmlns:xlink="http://www.w3.org/1999/xlink">
    <!-- Generator: Sketch 58 (84663) - https://sketch.com -->
    <title>USB调试</title>
    <desc>Created with Sketch.</desc>
    <defs>
        <rect id="path-1" x="12" y="0" width="12" height="12" rx="6"></rect>
        <filter x="-91.7%" y="-58.3%" width="283.3%" height="283.3%" filterUnits="objectBoundingBox" id="filter-2">
            <feOffset dx="0" dy="4" in="SourceAlpha" result="shadowOffsetOuter1"></feOffset>
            <feGaussianBlur stdDeviation="3" in="shadowOffsetOuter1" result="shadowBlurOuter1"></feGaussianBlur>
            <feColorMatrix values="0 0 0 0 0.17254902   0 0 0 0 0.654901961   0 0 0 0 0.97254902  0 0 0 0.4 0" type="matrix" in="shadowBlurOuter1"></feColorMatrix>
        </filter>
    </defs>
    <g id="页面-1" stroke="none" stroke-width="1" fill="none" fill-rule="evenodd">
        <g id="android-usb调试模式" transform="translate(-859.000000, -391.000000)">
            <g id="USB调试" transform="translate(859.000000, 391.000000)">
                <g id="手机" transform="translate(3.000000, 3.000000)">
                    <path d="M-1.5,14 C-1.5,5.43958638 5.43958638,-1.5 14,-1.5 L98,-1.5 C106.560414,-1.5 113.5,5.43958638 113.5,14 L113.5,195 C113.5,203.560414 106.560414,210.5 98,210.5 L14,210.5 C5.43958638,210.5 -1.5,203.560414 -1.5,195 L-1.5,14 Z" id="路径" stroke="#E6E6E6" stroke-width="3" fill="#FFFFFF" fill-rule="nonzero"></path>
                    <g id="编组-2" transform="translate(36.000000, 9.000000)" fill="#E6E6E6">
                        <rect id="矩形" x="9" y="0" width="31" height="4" rx="2"></rect>
                        <rect id="矩形" x="0" y="0" width="4" height="4" rx="2"></rect>
                    </g>
                    <g id="路径-2" transform="translate(8.000000, 20.000000)" fill="#E6E6E6" fill-rule="nonzero">
                        <path d="M95,159.810811 C95,160.763359 93.7969432,162 91.7977528,162 L3.20224719,162 C1.20305677,162 0,160.763359 0,158.716216 L0,3.28378378 C0,1.23664122 1.20305677,0 3.20224719,0 L91.7977528,0 C93.7969432,0 95,1.23664122 95,3.28378378 L95,159.810811 Z" id="路径"></path>
                    </g>
                    <rect id="矩形" fill="#E6E6E6" x="47" y="187" width="17" height="17" rx="8.5"></rect>
                </g>
                <g id="swith_on" transform="translate(47.000000, 147.000000)">
                    <g id="矩形">
                        <rect fill="#CFCFCF" x="0" y="0" width="24" height="12" rx="6"></rect>
                        <g>
                            <use fill="black" fill-opacity="1" filter="url(#filter-2)" xlink:href="#path-1"></use>
                            <use fill="#0081FF" fill-rule="evenodd" xlink:href="#path-1"></use>
                        </g>
                    </g>
                </g>
                <g id="usb" transform="translate(47.000000, 64.000000)" fill-rule="nonzero">
                    <polygon id="路径" fill="#CFCFCF" points="9 35 9 58 14 58 14 35"></polygon>
                    <polygon id="路径" fill="#CFCFCF" points="4 0 20 0 20 18 4 18"></polygon>
                    <path d="M16,40.6353968 C16,41.9405594 14.9916339,43 13.7491564,43 L9.25084364,43 C8.0084716,43 7,41.9406702 7,40.6353968 L7,32.3646032 C7,31.0594406 8.00836614,30 9.25084364,30 L13.7491564,30 C14.9915284,30 16,31.0593298 16,32.3646032 L16,40.6353968 Z" id="路径" fill="#CFCFCF"></path>
                    <path d="M23,33.8207661 C23,35.0254186 21.9691484,36 20.6989651,36 L2.30103495,36 C1.03095939,36 0,35.0254186 0,33.8207661 L0,12 L23,12 L23,33.8207661 Z" id="路径" fill="#CFCFCF"></path>
                    <path d="M9.60036004,4 L7.19891989,4 C6.53611611,4 6,4.44816273 6,5.00037495 C6,5.55258718 6.53622862,6 7.19891989,6 L9.60036004,6 C10.2631638,6 10.7992799,5.55258718 10.7992799,5.00037495 C10.7992799,4.44816273 10.2630513,4 9.60036004,4 Z M16.8010801,4 L14.39964,4 C13.7368362,4 13.2007201,4.44816273 13.2007201,5.00037495 C13.2007201,5.55258718 13.7369487,6 14.39964,6 L16.8010801,6 C17.4638839,6 18,5.55258718 18,5.00037495 C18,4.44816273 17.4637714,4 16.8010801,4 L16.8010801,4 Z" id="形状" fill="#000000" opacity="0.1"></path>
                    <path d="M16,27.3605143 L15.9967327,23.2968913 C15.9950463,22.6630915 15.4928271,22.1488766 14.8719303,22.1488766 C14.2510335,22.1488766 13.7471279,22.6630915 13.7471279,23.2977531 L13.7471279,23.298615 L13.7503952,26.1308371 L11.7709243,27.4783754 L12.1233737,26.9379811 L9.2480238,24.9810986 L9.25129112,22.1497384 L9.25129112,22.1488766 C9.25129112,21.5142149 8.74738556,21 8.12648874,21 C7.50559192,21 7.00337272,21.5134608 7.00168636,22.1480147 L7,26.2116377 L10.8766263,28.8511234 L11.1252591,28.4689905 L12.1232683,30 L16,27.3605143 Z" id="路径" fill="#E6E9ED"></path>
                    <path d="M13.6336978,17.3858346 L12.3846364,16.3138895 C12.1574704,16.1200313 11.8461428,16 11.5,16 C11.1538609,16 10.8425333,16.1200313 10.6153673,16.3138895 L9.36630595,17.3858346 C9.1310937,17.5862061 8.99919426,17.8588802 9,18.1430867 C9,18.7348061 9.55865858,19.2142283 10.249065,19.2142283 L10.249065,29.929662 C10.249065,30.5197742 10.8094782,31 11.5,31 C12.1905255,31 12.7509387,30.5197742 12.7509387,29.929662 L12.7509387,19.2142283 C13.4414623,19.2142283 14,18.7348061 14,18.1430867 C14,17.8472773 13.8608638,17.5796928 13.6336978,17.3858346 Z" id="路径" fill="#F5F7FA"></path>
                </g>
            </g>
        </g>
    </g>
</svg>