<?xml version="1.0" encoding="UTF-8"?>
<svg width="84px" height="244px" viewBox="0 0 84 244" version="1.1" xmlns="http://www.w3.org/2000/svg" xmlns:xlink="http://www.w3.org/1999/xlink">
    <!-- Generator: Sketch 58 (84663) - https://sketch.com -->
    <title>手机</title>
    <desc>Created with Sketch.</desc>
    <defs>
        <linearGradient x1="50%" y1="0%" x2="50%" y2="100%" id="linearGradient-1">
            <stop stop-color="#F4F4F4" stop-opacity="0" offset="0%"></stop>
            <stop stop-color="#E9E9E9" stop-opacity="0.777361834" offset="36.4312066%"></stop>
            <stop stop-color="#E6E6E6" offset="100%"></stop>
        </linearGradient>
    </defs>
    <g id="页面-1" stroke="none" stroke-width="1" fill="none" fill-rule="evenodd">
        <g id="2检测设备" transform="translate(-1115.000000, -384.000000)">
            <g id="手机" transform="translate(1115.000000, 384.000000)">
                <g id="usb" transform="translate(32.000000, 139.000000)">
                    <path d="M6,0 L13.5,0 C15.1568542,-3.04359188e-16 16.5,1.34314575 16.5,3 L16.5,10.5 L16.5,10.5 L3,10.5 L3,3 C3,1.34314575 4.34314575,3.04359188e-16 6,0 Z" id="矩形-2" fill="#E6E6E6"></path>
                    <rect id="矩形-2" fill="#E6E6E6" transform="translate(9.500000, 24.500000) rotate(-180.000000) translate(-9.500000, -24.500000) " x="-0.487179487" y="11.5098039" width="19" height="25" rx="3"></rect>
                    <rect id="矩形-2" fill="#E6E6E6" transform="translate(9.500000, 42.500000) rotate(-180.000000) translate(-9.500000, -42.500000) " x="5.53333333" y="29.5098039" width="7" height="25" rx="3"></rect>
                    <rect id="矩形-2" fill="url(#linearGradient-1)" transform="translate(10.000000, 78.000000) rotate(-180.000000) translate(-10.000000, -78.000000) " x="8" y="52" width="4" height="52" rx="2"></rect>
                </g>
                <g transform="translate(3.000000, 3.000000)">
                    <path d="M-1.5,5.5296 C-1.5,1.64725912 1.64725912,-1.5 5.5296,-1.5 L72.4704,-1.5 C76.3527409,-1.5 79.5,1.64725912 79.5,5.5296 L79.5,138.4704 C79.5,142.352741 76.3527409,145.5 72.4704,145.5 L5.5296,145.5 C1.64725912,145.5 -1.5,142.352741 -1.5,138.4704 L-1.5,5.5296 Z" id="路径" stroke="#E6E6E6" stroke-width="3" fill="#FFFFFF" fill-rule="nonzero"></path>
                    <path d="M31,8.5 C31,7.0880829 32.0243902,6 33.5555556,6 L51.4444444,6 C52.9756098,6 54,7.0880829 54,8.5 L54,8.5 C54,9.9119171 52.9756098,11 51.4444444,11 L33.5555556,11 C32.0243902,11 31,9.9119171 31,8.5 L31,8.5 L31,8.5 Z" id="路径" fill="#E6E6E6" fill-rule="nonzero"></path>
                    <path d="M72,124.513514 C72,125.160305 71.1641921,126 69.7752809,126 L8.2247191,126 C6.83580786,126 6,125.160305 6,123.77027 L6,18.2297297 C6,16.8396947 6.83580786,16 8.2247191,16 L69.7752809,16 C71.1641921,16 72,16.8396947 72,18.2297297 L72,124.513514 Z" id="路径" fill="#E6E6E6" fill-rule="nonzero"></path>
                    <rect id="矩形" fill="#E6E6E6" x="24" y="6" width="5" height="5" rx="2.25"></rect>
                    <rect id="矩形" fill="#E6E6E6" x="33" y="129" width="12" height="12" rx="6"></rect>
                </g>
            </g>
        </g>
    </g>
</svg>