<?xml version="1.0" encoding="UTF-8"?>
<svg width="188px" height="382px" viewBox="0 0 188 382" version="1.1" xmlns="http://www.w3.org/2000/svg" xmlns:xlink="http://www.w3.org/1999/xlink">
    <title>phone</title>
    <defs>
        <path d="M28.6844444,8 L159.315556,8 C171.843828,8 182,18.4440652 182,31.3274725 L182,350.672527 C182,363.555935 171.843828,374 159.315556,374 L28.6844444,374 C16.1561717,374 6,363.555935 6,350.672527 L6,31.3274725 C6,18.4440652 16.1561717,8 28.6844444,8 Z" id="path-1"></path>
        <filter x="-5.7%" y="-2.2%" width="111.4%" height="105.5%" filterUnits="objectBoundingBox" id="filter-2">
            <feOffset dx="0" dy="2" in="SourceAlpha" result="shadowOffsetOuter1"></feOffset>
            <feGaussianBlur stdDeviation="3" in="shadowOffsetOuter1" result="shadowBlurOuter1"></feGaussianBlur>
            <feColorMatrix values="0 0 0 0 0   0 0 0 0 0   0 0 0 0 0  0 0 0 0.2 0" type="matrix" in="shadowBlurOuter1"></feColorMatrix>
        </filter>
        <path d="M28.1576355,14 C19.2340198,14 12,21.3206096 12,30.3510393 L12,351.648961 C12,360.67939 19.2340198,368 28.1576355,368 L159.842365,368 C168.76598,368 176,360.67939 176,351.648961 L176,30.3510393 C176,21.3206096 168.76598,14 159.842365,14 L28.1576355,14 Z" id="path-3"></path>
        <path d="M39.3933834,33.069137 C38.1292021,34.3431416 36.1602105,34.3048236 34.9391413,32.9824542 C33.7180721,31.6600848 33.683352,29.5284626 34.8605976,28.1603102 L37.1269905,25.7050559 C38.3796308,24.3492869 40.4102427,24.3492869 41.662883,25.7050559 C41.8601633,25.9186294 42.0155021,26.1574281 42.1490934,26.4063169 L41.0927897,27.5464966 C41.0430813,27.6003104 40.9824992,27.6322623 40.9234704,27.6675776 C40.8495651,27.3909361 40.7134686,27.1384417 40.5273565,26.932683 C39.8996219,26.2569151 38.8855915,26.2569151 38.2578569,26.932683 L35.991464,29.3879373 C35.5866119,29.8262258 35.4284992,30.4650453 35.5766853,31.0637585 C35.7248715,31.6624718 36.1568435,32.1301201 36.7098817,32.2905448 C37.26292,32.4509696 37.8530048,32.2797984 38.2578569,31.8415099 L39.0671719,30.9670358 C39.7211482,31.2394681 40.4248329,31.3151437 41.1114304,31.2075162 L39.3933834,33.069137 L39.3933834,33.069137 Z M45.0616957,26.932683 L42.7937494,29.3862556 C42.1692875,30.0639731 41.3490987,30.4019966 40.5273565,30.4019966 C39.67618,30.4036536 38.8594647,30.0381252 38.2578569,29.3862556 C38.0693451,29.1758305 37.906471,28.9401644 37.7731999,28.6849947 L38.8295036,27.5464966 C38.8776586,27.4926828 38.9397941,27.4607309 38.9988229,27.4237339 C39.0718321,27.6928029 39.1976565,27.9484184 39.3933834,28.1603102 C40.0178453,28.8363459 41.0384211,28.8329826 41.662883,28.1603102 L43.9292759,25.7050559 C44.5522808,25.0262489 44.5522808,23.9302903 43.9292759,23.2514833 C43.3029572,22.5751816 42.2892017,22.5751816 41.662883,23.2514833 L40.853568,24.1259575 C40.2029309,23.8553344 39.4986095,23.7719008 38.8093096,23.8837954 L40.5273565,22.0255379 C41.4420643,21.0265549 42.8239382,20.7255158 44.0243743,21.2637179 C45.2248104,21.80192 46.0054714,23.0725075 45.9999711,24.4791105 C45.9999711,25.367038 45.6892644,26.2549656 45.0616957,26.932683 L45.0616957,26.932683 Z" id="path-5"></path>
        <filter x="-29.2%" y="-19.2%" width="158.3%" height="153.8%" filterUnits="objectBoundingBox" id="filter-6">
            <feOffset dx="0" dy="1" in="SourceAlpha" result="shadowOffsetOuter1"></feOffset>
            <feGaussianBlur stdDeviation="1" in="shadowOffsetOuter1" result="shadowBlurOuter1"></feGaussianBlur>
            <feColorMatrix values="0 0 0 0 0   0 0 0 0 0   0 0 0 0 0  0 0 0 0.5 0" type="matrix" in="shadowBlurOuter1"></feColorMatrix>
        </filter>
        <linearGradient x1="50%" y1="0%" x2="50%" y2="100%" id="linearGradient-7">
            <stop stop-color="#55C600" offset="0%"></stop>
            <stop stop-color="#00C3B6" offset="100%"></stop>
        </linearGradient>
        <circle id="path-8" cx="8" cy="8" r="8"></circle>
        <filter x="-34.4%" y="-21.9%" width="168.8%" height="168.8%" filterUnits="objectBoundingBox" id="filter-9">
            <feOffset dx="0" dy="2" in="SourceAlpha" result="shadowOffsetOuter1"></feOffset>
            <feGaussianBlur stdDeviation="1.5" in="shadowOffsetOuter1" result="shadowBlurOuter1"></feGaussianBlur>
            <feColorMatrix values="0 0 0 0 0   0 0 0 0 0.835294118   0 0 0 0 0.270588235  0 0 0 0.3 0" type="matrix" in="shadowBlurOuter1"></feColorMatrix>
        </filter>
    </defs>
    <g id="页面-1备份" stroke="none" stroke-width="1" fill="none" fill-rule="evenodd">
        <g id="1-首页-手机" transform="translate(-808.000000, -312.000000)">
            <g id="phone" transform="translate(808.000000, 312.000000)">
                <path d="M4.85,81 L6.15,81 C6.61944204,81 7,81.380558 7,81.85 L7,130.15 C7,130.619442 6.61944204,131 6.15,131 L4.85,131 C4.38055796,131 4,130.619442 4,130.15 L4,81.85 C4,81.380558 4.38055796,81 4.85,81 Z" id="volume--up" fill="#71747A" opacity="0.850423177"></path>
                <path d="M181,73 L183.15,73 C183.619442,73 184,73.380558 184,73.85 L184,106.15 C184,106.619442 183.619442,107 183.15,107 L181,107 L181,107 L181,73 Z" id="volume--up" fill="#71747A" opacity="0.850423177"></path>
                <g id="iphone">
                    <use fill="black" fill-opacity="1" filter="url(#filter-2)" xlink:href="#path-1"></use>
                    <use fill="#727883" fill-rule="evenodd" xlink:href="#path-1"></use>
                </g>
                <mask id="mask-4" fill="white">
                    <use xlink:href="#path-3"></use>
                </mask>
                <use id="Combined-Shape" fill="#F7F7F7" xlink:href="#path-3"></use>
                <g id="编组-3" mask="url(#mask-4)">
                    <g transform="translate(33.000000, 122.000000)">
                        <g id="电脑" stroke-width="1" fill="none" transform="translate(46.000000, 0.000000)">
                            <g id="路径-3" transform="translate(0.151503, 0.000000)" fill="#FFFFFF" fill-rule="nonzero" stroke="#E6E6E6">
                                <path d="M75.8484972,-0.5 L4.84849724,-0.5 C3.60585655,-0.5 2.48085655,0.00367965644 1.66651672,0.818019485 C0.852176896,1.63235931 0.34849724,2.75735931 0.34849724,4 L0.34849724,54 C0.34849724,55.2426407 0.852176896,56.3676407 1.66651672,57.1819805 C2.48085655,57.9963203 3.60585655,58.5 4.84849724,58.5 L38.3484972,58.5 L38.3484972,65.5001672 L18.7057572,65.5067364 C18.3177004,65.543552 17.9724802,65.7278509 17.7274005,66.0034188 C17.4917333,66.2684033 17.3484972,66.6174642 17.3484972,67 C17.3484972,67.4142136 17.5163905,67.7892136 17.7878371,68.0606602 C18.0592837,68.3321068 18.4342837,68.5 18.8484972,68.5 L63.9912288,68.4932684 C64.3932966,68.455018 64.749577,68.2608161 64.997599,67.9468053 C65.2105795,67.677159 65.3464059,67.3144986 65.3384306,66.8256925 C65.2948524,66.4504982 65.1131513,66.1173172 64.8450784,65.8789033 C64.5800939,65.643236 64.231033,65.5 63.8484972,65.5 L43.3484972,65.5 L43.3484972,58.5 L75.8484972,58.5 C77.0911379,58.5 78.2161379,57.9963203 79.0304778,57.1819805 C79.8448176,56.3676407 80.3484972,55.2426407 80.3484972,54 L80.3484972,4 C80.3484972,2.75735931 79.8448176,1.63235931 79.0304778,0.818019485 C78.2161379,0.00367965644 77.0911379,-0.5 75.8484972,-0.5 Z" id="路径-2"></path>
                            </g>
                            <path d="M3,49.4288036 L3,6.57073216 C3,4.60406704 3.27986155,3 5.15850672,3 L75.8414933,3 C77.7188089,3 78,4.60406704 78,6.57073216 L78,49.4283393 C78,51.3954687 77.7188089,53 75.8414933,53 L5.15850672,53 C3.28030473,53 3,51.395933 3,49.4288036 Z" id="路径" fill="#727883" fill-rule="nonzero"></path>
                            <g id="形状" fill-rule="nonzero">
                                <use fill="black" fill-opacity="1" filter="url(#filter-6)" xlink:href="#path-5"></use>
                                <use fill="#FFFFFF" xlink:href="#path-5"></use>
                            </g>
                        </g>
                        <g id="手机" stroke-width="1" fill="none" transform="translate(0.000000, 17.000000)">
                            <path d="M1.8432,-0.5 C1.19614319,-0.5 0.610343187,-0.237728406 0.18630739,0.18630739 C-0.237728406,0.610343187 -0.5,1.19614319 -0.5,1.8432 L-0.5,36.1568 C-0.5,36.8038568 -0.237728406,37.3896568 0.18630739,37.8136926 C0.610343187,38.2377284 1.19614319,38.5 1.8432,38.5 L19.1568,38.5 C19.8038568,38.5 20.3896568,38.2377284 20.8136926,37.8136926 C21.2377284,37.3896568 21.5,36.8038568 21.5,36.1568 L21.5,1.8432 C21.5,1.19614319 21.2377284,0.610343187 20.8136926,0.18630739 C20.3896568,-0.237728406 19.8038568,-0.5 19.1568,-0.5 L1.8432,-0.5 Z" id="路径" stroke="#E6E6E6" fill="#FFFFFF" fill-rule="nonzero"></path>
                            <path d="M8.05,2.11111111 L12.95,2.11111111 C13.3694062,2.11111111 13.65,2.3408175 13.65,2.63888889 C13.65,2.93696028 13.3694062,3.16666667 12.95,3.16666667 L8.05,3.16666667 C7.63059385,3.16666667 7.35,2.93696028 7.35,2.63888889 C7.35,2.3408175 7.63059385,2.11111111 8.05,2.11111111 Z" id="路径" fill="#E6E6E6" fill-rule="nonzero"></path>
                            <path d="M20,36.5135135 C20,36.7251908 19.7593886,37 19.3595506,37 L1.64044944,37 C1.24061135,37 1,36.7251908 1,36.2702703 L1,1.72972973 C1,1.27480916 1.24061135,1 1.64044944,1 L19.3595506,1 C19.7593886,1 20,1.27480916 20,1.72972973 L20,36.5135135 Z" id="路径" fill="#727883" fill-rule="nonzero"></path>
                            <rect id="矩形" fill="#FFFFFF" x="6" y="0" width="9" height="2" rx="1"></rect>
                        </g>
                        <rect id="矩形" fill="#25C111" x="26" y="36" width="2" height="2" rx="1"></rect>
                        <rect id="矩形" fill="#25C111" x="32" y="36" width="2" height="2" rx="1"></rect>
                        <rect id="矩形" fill="#25C111" x="38" y="36" width="2" height="2" rx="1"></rect>
                    </g>
                </g>
                <g id="ok" mask="url(#mask-4)">
                    <g transform="translate(86.000000, 210.000000)">
                        <g>
                            <g id="Oval-127">
                                <use fill="black" fill-opacity="1" filter="url(#filter-9)" xlink:href="#path-8"></use>
                                <use fill="url(#linearGradient-7)" fill-rule="evenodd" xlink:href="#path-8"></use>
                            </g>
                            <polyline id="Path-1766" stroke="#FFFFFF" stroke-linecap="round" stroke-linejoin="round" points="4.1890637 8.03481816 7.09494394 11.537831 13.023429 4.53180533"></polyline>
                        </g>
                    </g>
                </g>
            </g>
        </g>
    </g>
</svg>