<?xml version="1.0" encoding="UTF-8"?>
<svg width="20px" height="20px" viewBox="0 0 20 20" version="1.1" xmlns="http://www.w3.org/2000/svg" xmlns:xlink="http://www.w3.org/1999/xlink">
    <!-- Generator: Sketch 58 (84663) - https://sketch.com -->
    <title>推出 white</title>
    <desc>Created with Sketch.</desc>
    <g id="组件" stroke="none" stroke-width="1" fill="none" fill-rule="evenodd">
        <g id="推出" fill="#FFFFFF">
            <path d="M13.4995642,13 C13.745238,13 13.9495644,13.1832562 13.9919373,13.4122514 L14,13.5 C14,13.7761424 13.7692032,14 13.4995642,14 L6.50043583,14 C6.22405275,14 6,13.7680664 6,13.5 C6,13.2238576 6.23079681,13 6.50043583,13 L13.4995642,13 Z M10.5568185,6.41701014 L13.7830072,11.1754428 C14.0917591,11.6308332 13.8994425,12 13.3458196,12 L6.65369872,12 C6.10349476,12 5.90325592,11.6371435 6.21600012,11.1754428 L9.43923992,6.41701014 C9.74770962,5.96161979 10.2437882,5.9553094 10.5568185,6.41701014 Z" id="Combined-Shape"></path>
        </g>
    </g>
</svg>