<?xml version="1.0" encoding="UTF-8"?>
<svg width="118px" height="215px" viewBox="0 0 118 215" version="1.1" xmlns="http://www.w3.org/2000/svg" xmlns:xlink="http://www.w3.org/1999/xlink">
    <!-- Generator: Sketch 58 (84663) - https://sketch.com -->
    <title>解锁</title>
    <desc>Created with Sketch.</desc>
    <g id="页面-1" stroke="none" stroke-width="1" fill="none" fill-rule="evenodd">
        <g id="ios解锁提示" transform="translate(-1098.000000, -384.000000)">
            <g id="解锁" transform="translate(1098.000000, 384.000000)">
                <g id="手机" transform="translate(3.000000, 3.000000)">
                    <path d="M-1.5,14 C-1.5,5.43958638 5.43958638,-1.5 14,-1.5 L98,-1.5 C106.560414,-1.5 113.5,5.43958638 113.5,14 L113.5,195 C113.5,203.560414 106.560414,210.5 98,210.5 L14,210.5 C5.43958638,210.5 -1.5,203.560414 -1.5,195 L-1.5,14 Z" id="路径" stroke="#E6E6E6" stroke-width="3" fill="#FFFFFF" fill-rule="nonzero"></path>
                    <g id="编组-2" transform="translate(36.000000, 9.000000)" fill="#E6E6E6">
                        <rect id="矩形" x="9" y="0" width="31" height="4" rx="2"></rect>
                        <rect id="矩形" x="0" y="0" width="4" height="4" rx="2"></rect>
                    </g>
                    <g id="路径-2" transform="translate(8.000000, 20.000000)" fill="#E6E6E6" fill-rule="nonzero">
                        <path d="M95,159.810811 C95,160.763359 93.7969432,162 91.7977528,162 L3.20224719,162 C1.20305677,162 0,160.763359 0,158.716216 L0,3.28378378 C0,1.23664122 1.20305677,0 3.20224719,0 L91.7977528,0 C93.7969432,0 95,1.23664122 95,3.28378378 L95,159.810811 Z" id="路径"></path>
                    </g>
                    <rect id="矩形" fill="#E6E6E6" x="47" y="187" width="17" height="17" rx="8.5"></rect>
                </g>
                <g id="编组" transform="translate(42.000000, 73.000000)">
                    <g id="锁-(1)" transform="translate(0.000000, 14.000000)" fill="#CFCFCF" fill-rule="nonzero">
                        <path d="M27,5 L27,17 C27,19.7614237 24.7614237,22 22,22 L5,22 C2.23857625,22 3.38176876e-16,19.7614237 0,17 L0,5 C-3.38176876e-16,2.23857625 2.23857625,5.07265313e-16 5,0 L22,0 C24.7614237,-5.07265313e-16 27,2.23857625 27,5 Z" id="形状"></path>
                    </g>
                    <path d="M35,0 C35,2.17592593 35,4.67592593 35,7.5 C35,11.6421356 31.6421356,15 27.5,15 C23.3578644,15 20,11.6421356 20,7.5 L20,0" id="矩形" stroke="#CFCFCF" stroke-width="3" stroke-linecap="round" transform="translate(27.500000, 7.500000) rotate(-180.000000) translate(-27.500000, -7.500000) "></path>
                </g>
            </g>
        </g>
    </g>
</svg>