<?xml version="1.0" encoding="UTF-8"?>
<svg width="36px" height="36px" viewBox="0 0 36 36" version="1.1" xmlns="http://www.w3.org/2000/svg" xmlns:xlink="http://www.w3.org/1999/xlink">
    <title>导出</title>
    <g id="页面-深色" stroke="none" stroke-width="1" fill="none" fill-rule="evenodd">
        <g id="按钮" transform="translate(-84.000000, -38.000000)" fill="#C5CFE0" fill-rule="nonzero">
            <g id="编组-4" transform="translate(84.000000, 38.000000)">
                <g id="导出">
                    <path d="M26,21.1785714 L26,23.3214286 C26,24.8214286 24.8214286,26 23.3214286,26 L13.6785714,26 C12.1785714,26 11,24.8214286 11,23.3214286 L11,13.6785714 C11,12.1785714 12.1785714,11 13.6785714,11 L15.8214286,11 C16.1428571,11 16.3571429,11.2142857 16.3571429,11.5357143 C16.3571429,11.8571429 16.1428571,12.0714286 15.8214286,12.0714286 L13.6785714,12.0714286 C12.8214286,12.0714286 12.0714286,12.8214286 12.0714286,13.6785714 L12.0714286,23.3214286 C12.0714286,24.1785714 12.8214286,24.9285714 13.6785714,24.9285714 L23.3214286,24.9285714 C24.1785714,24.9285714 24.9285714,24.1785714 24.9285714,23.3214286 L24.9285714,21.1785714 C24.9285714,20.8571429 25.1428571,20.6428571 25.4642857,20.6428571 C25.7857143,20.6428571 26,20.8571429 26,21.1785714 Z M20.1071429,12.0714286 L24.1785714,12.0714286 L15.9285714,20.2142857 C15.7142857,20.4285714 15.7142857,20.75 15.9285714,20.9642857 C16.0357143,21.0714286 16.1428571,21.0714286 16.3571429,21.0714286 C16.5714286,21.0714286 16.6785714,21.0714286 16.7857143,20.9642857 L24.9285714,12.8214286 L24.9285714,16.8928571 C24.9285714,17.2142857 25.1428571,17.4285714 25.4642857,17.4285714 C25.7857143,17.3214286 26,17.2142857 26,16.8928571 L26,11 L20.1071429,11 C19.7857143,11 19.5714286,11.2142857 19.5714286,11.5357143 C19.5714286,11.8571429 19.7857143,12.0714286 20.1071429,12.0714286 Z" id="形状"></path>
                </g>
            </g>
        </g>
    </g>
</svg>