<?xml version="1.0" encoding="UTF-8"?>
<svg width="30px" height="30px" viewBox="0 0 30 30" version="1.1" xmlns="http://www.w3.org/2000/svg" xmlns:xlink="http://www.w3.org/1999/xlink">
    <title>删除 copy 3</title>
    <g id="页面-1备份" stroke="none" stroke-width="1" fill="none" fill-rule="evenodd">
        <g id="删除-copy-3" fill="#FFFFFF">
            <path d="M16,7 L13,7 L12,7 L12,8 L13,8 L16,8 L17,8 L17,7 L16,7 Z M7,10 L8,10 L21,10 L22,10 L22,9 L21,9 L8,9 L7,9 L7,10 Z M9,12 L9,23 L10,23 L19,23 L20,23 L20,12 L20,11 L19,11 L19,12 L19,22 L10,22 L10,12 L10,11 L9,11 L9,12 Z M12,13 L12,20 L12,21 L13,21 L13,20 L13,13 L13,12 L12,12 L12,13 Z M14,13 L14,20 L14,21 L15,21 L15,20 L15,13 L15,12 L14,12 L14,13 Z M16,13 L16,20 L16,21 L17,21 L17,20 L17,13 L17,12 L16,12 L16,13 Z" id="line34500"></path>
        </g>
    </g>
</svg>