<?xml version="1.0" encoding="UTF-8"?>
<svg width="24px" height="24px" viewBox="0 0 24 24" version="1.1" xmlns="http://www.w3.org/2000/svg" xmlns:xlink="http://www.w3.org/1999/xlink">
    <title>安卓</title>
    <g id="页面-深色" stroke="none" stroke-width="1" fill="none" fill-rule="evenodd">
        <g id="1手机未连接PC" transform="translate(-1085.000000, -617.000000)" fill="#C5CFE0">
            <g id="编组-4" transform="translate(1073.000000, 605.000000)">
                <g id="安卓" transform="translate(12.000000, 12.000000)">
                    <path d="M21.5,8.99992692 C20.675,8.99992692 20,9.67493021 20,10.4999269 L20,16.4999635 C20,17.3249675 20.675,17.9999708 21.5,17.9999708 C22.325,17.9999708 23,17.3249675 23,16.4999635 L23,10.4999269 C23,9.67493021 22.325,8.99992692 21.5,8.99992692 Z M3.5,8.99992692 C2.675,8.99992692 2,9.67493021 2,10.4999269 L2,16.4999635 C2,17.3249675 2.675,17.9999708 3.5,17.9999708 C4.325,17.9999708 5,17.3249675 5,16.4999635 L5,10.4999269 C5,9.67493021 4.325,8.99992692 3.5,8.99992692 Z M5.75,17.2499671 C5.75,18.4927232 6.75725,19.4999781 8,19.4999781 L8,22.4999927 C8,23.3249967 8.675,24 9.5,24 C10.325,24 11,23.3249967 11,22.4999927 L11,19.4999781 L14,19.4999781 L14,22.4999927 C14,23.3249967 14.675,24 15.5,24 C16.325,24 17,23.3249967 17,22.4999927 L17,19.4999781 C18.24275,19.4999781 19.25,18.4927232 19.25,17.2499671 L19.25,8.99992692 L5.75,8.99992692 L5.75,17.2499671 Z M19.208,7.49991962 C18.98,5.44040958 17.825,3.66065091 16.16975,2.58664568 L16.9205,1.08588837 C17.10575,0.715386563 16.95575,0.264634367 16.58525,0.0793834648 C16.21475,-0.105867438 15.764,0.0441332931 15.57875,0.414635098 L14.82575,1.92139244 L14.63,1.84339206 C13.96025,1.62064097 13.244,1.49989039 12.5,1.49989039 C11.756,1.49989039 11.03975,1.62064097 10.37,1.84339206 L10.17425,1.92139244 L9.42125,0.414635098 C9.236,0.0441332931 8.78525,-0.105867438 8.41475,0.0793834648 C8.04425,0.264634367 7.89425,0.715386563 8.0795,1.08588837 L8.83025,2.58664568 C7.175,3.66140092 6.02,5.44040958 5.792,7.49991962 L5.792,8.24992327 L19.25,8.24992327 L19.25,7.49991962 L19.208,7.49991962 Z M10.25,5.999905 C9.836,5.999905 9.5,5.66391067 9.5,5.24990865 C9.5,4.83590664 9.83525,4.500655 10.2485,4.499905 L10.25225,4.499905 C10.6655,4.500655 11.00075,4.83590664 11.00075,5.24990865 C11.00075,5.66391067 10.66475,5.999905 10.25075,5.999905 L10.25,5.999905 Z M14.75,5.999905 C14.336,5.999905 14,5.66391067 14,5.24990865 C14,4.83590664 14.3345,4.500655 14.7485,4.499905 L14.75225,4.499905 C15.1655,4.500655 15.50075,4.83590664 15.50075,5.24990865 C15.50075,5.66391067 15.16475,5.999905 14.75075,5.999905 L14.75,5.999905 Z" id="形状"></path>
                </g>
            </g>
        </g>
    </g>
</svg>