<?xml version="1.0" encoding="UTF-8"?>
<svg width="36px" height="36px" viewBox="0 0 36 36" version="1.1" xmlns="http://www.w3.org/2000/svg" xmlns:xlink="http://www.w3.org/1999/xlink">
    <title>新建</title>
    <g id="页面-深色" stroke="none" stroke-width="1" fill="none" fill-rule="evenodd">
        <g id="按钮" transform="translate(-40.000000, -38.000000)" fill="#C5CFE0" fill-rule="nonzero">
            <g id="编组-2" transform="translate(40.000000, 38.000000)">
                <g id="新建">
                    <path d="M22.8,13 L17.0325581,13 C16.8465116,12.0039063 16.0155039,11 14.8992248,11 L12.3565891,11 C11.0542636,11 10,11.9960938 10,13.2265625 L10,23.1875 C10,24.7695312 11.3643411,26 12.9767442,26 L18.5581395,26 C18.8062016,26 19.0542636,25.8242188 19.0542636,25.53125 C19.0542636,25.2382812 18.8682171,25.0625 18.5581395,25.0625 L13.0387597,25.0625 C11.9224806,25.0625 11.0666667,24.0546875 11.0666667,23 L11.0666667,17 C11.1080103,17.0390625 15.7302326,17.0390625 24.9333333,17 L25.0077519,19.671875 C25.0077519,19.90625 25.1937984,20.140625 25.503876,20.140625 C25.8139535,20.140625 26,19.9648438 26,19.671875 L26,15.5703125 C25.9379845,13.9882812 24.4744186,13 22.8,13 Z M11,16 L11,13.5 C11,12.8233083 11.5221239,12 12.2573179,12 L14.7692308,12 C15.5044248,12 16.2845473,12.6353383 16.2845473,13.3120301 C16.2845473,13.537594 16.6167461,14 16.9230769,14 L22.8461538,14 C23.9489449,14 25,14.4849624 25,15.5 L25,16 C24.9591559,16 20.2924892,16 11,16 Z" id="形状"></path>
                    <path d="M25.5348837,23.0930233 L23.9069767,23.0930233 L23.9069767,21.4651163 C23.9069767,21.2325581 23.7325581,21 23.4418605,21 C23.1511628,21 22.9767442,21.1744186 22.9767442,21.4651163 L22.9767442,23.0930233 L21.4651163,23.0930233 C21.2325581,23.0930233 21,23.2674419 21,23.5581395 C21,23.8488372 21.1744186,24.0232558 21.4651163,24.0232558 L23.0930233,24.0232558 L23.0930233,25.5348837 C23.0930233,25.7674419 23.2674419,26 23.5581395,26 C23.8488372,26 24.0232558,25.8255814 24.0232558,25.5348837 L24.0232558,23.9069767 L25.5348837,23.9069767 C25.7674419,23.9069767 26,23.7325581 26,23.4418605 C26,23.1511628 25.7674419,23.0930233 25.5348837,23.0930233 L25.5348837,23.0930233 Z" id="路径"></path>
                </g>
            </g>
        </g>
    </g>
</svg>