<?xml version="1.0" encoding="UTF-8"?>
<svg width="68px" height="68px" viewBox="0 0 68 68" version="1.1" xmlns="http://www.w3.org/2000/svg" xmlns:xlink="http://www.w3.org/1999/xlink">
    <title>文件管理</title>
    <defs>
        <linearGradient x1="50%" y1="25.5270769%" x2="50%" y2="122.417084%" id="linearGradient-1">
            <stop stop-color="#48D5FF" offset="0%"></stop>
            <stop stop-color="#0056FF" offset="100%"></stop>
        </linearGradient>
        <linearGradient x1="50%" y1="0%" x2="50%" y2="100%" id="linearGradient-2">
            <stop stop-color="#FFFFFF" offset="0%"></stop>
            <stop stop-color="#FFFFFF" stop-opacity="0.6" offset="100%"></stop>
        </linearGradient>
        <path d="M18,23.7 C18,22.2088312 19.2088312,21 20.7,21 L29.2614342,21 C30.3202216,21 31.2812943,21.6188475 31.7194237,22.5827321 L32.818,25 L45.4,25 C47.3882251,25 49,26.6117749 49,28.6 L49.0008186,35.2013041 C47.4416013,33.2436067 45.1079623,32 42.5,32 C37.8055796,32 34,36.0294373 34,41 C34,43.3053753 34.81864,45.4082996 36.1649114,47.0006464 L21.6,47 C19.6117749,47 18,45.3882251 18,43.4 L18,23.7 Z" id="path-3"></path>
        <filter x="-1.6%" y="-1.9%" width="103.2%" height="107.7%" filterUnits="objectBoundingBox" id="filter-4">
            <feOffset dx="0" dy="1" in="SourceAlpha" result="shadowOffsetOuter1"></feOffset>
            <feColorMatrix values="0 0 0 0 0.0520936224   0 0 0 0 0.444268892   0 0 0 0 0.947944973  0 0 0 1 0" type="matrix" in="shadowOffsetOuter1"></feColorMatrix>
        </filter>
        <linearGradient x1="50%" y1="0%" x2="50%" y2="100%" id="linearGradient-5">
            <stop stop-color="#FFFFFF" offset="0%"></stop>
            <stop stop-color="#FFFFFF" stop-opacity="0.6" offset="100%"></stop>
        </linearGradient>
        <path d="M43.4230683,34 C43.6940361,33.9999486 43.934656,34.1732 44.0205934,34.4301792 C44.2755315,35.1925217 44.7161437,35.7183282 45.3424301,36.0075986 C45.9568103,36.2913699 46.6314483,36.338876 47.3663441,36.150117 C47.6405605,36.0797084 47.9280742,36.2008495 48.0692,36.4462788 L48.9292299,37.9419418 C49.0696379,38.1861444 49.0308804,38.4938798 48.8342982,38.6956339 C48.3158563,39.2277156 48.0566354,39.8463544 48.0566354,40.5515505 C48.0566354,41.2358534 48.3007238,41.7961174 48.7889005,42.2323424 C49.0067944,42.4270405 49.0622054,42.7460132 48.9227454,43.0027933 L48.0631149,44.5855839 C47.9252006,44.839539 47.6321886,44.9670899 47.3523373,44.8950008 C46.5642379,44.6919879 45.8942688,44.7399311 45.3424301,45.0388302 C44.7796021,45.3436816 44.3466462,45.8668478 44.0435623,46.6083289 C43.9467774,46.8452193 43.7162982,47 43.460399,47 L41.6769703,47 C41.4054347,46.9999379 41.1644561,46.8259413 41.0790236,46.5681956 C40.8542535,45.8900747 40.441527,45.3802862 39.8408443,45.0388302 C39.2282159,44.6905838 38.4963599,44.6377932 37.6452763,44.8804586 C37.3642085,44.9606151 37.0649262,44.836923 36.922446,44.5817298 L36.0645701,43.0452063 C35.9135517,42.7748224 35.9814872,42.4347871 36.2247743,42.2431484 C36.7366089,41.8399733 36.9925262,41.2761073 36.9925262,40.5515505 C36.9925262,39.7982779 36.7469643,39.1741555 36.2558405,38.6791833 C36.061182,38.4829572 36.0171347,38.1827673 36.1472425,37.9389056 L36.929519,36.472682 C37.0685971,36.2119523 37.3702108,36.082946 37.6548239,36.1624326 C38.5708064,36.4182475 39.2994799,36.3666362 39.8408443,36.0075986 C40.3653658,35.6597314 40.7320148,35.1398787 40.9407913,34.4480405 C41.0210177,34.182018 41.2660705,34 41.5439271,34 L43.4230683,34 Z M42.4781824,38.3333333 C41.2439835,38.3333333 40.2434677,39.303383 40.2434677,40.5 C40.2434677,41.696617 41.2439835,42.6666667 42.4781824,42.6666667 C43.7123812,42.6666667 44.712897,41.696617 44.712897,40.5 C44.712897,39.303383 43.7123812,38.3333333 42.4781824,38.3333333 Z" id="path-6"></path>
        <filter x="-3.8%" y="-3.8%" width="107.7%" height="115.4%" filterUnits="objectBoundingBox" id="filter-7">
            <feOffset dx="0" dy="1" in="SourceAlpha" result="shadowOffsetOuter1"></feOffset>
            <feColorMatrix values="0 0 0 0 0.0520936224   0 0 0 0 0.444268892   0 0 0 0 0.947944973  0 0 0 1 0" type="matrix" in="shadowOffsetOuter1"></feColorMatrix>
        </filter>
    </defs>
    <g id="页面-1备份" stroke="none" stroke-width="1" fill="none" fill-rule="evenodd">
        <g id="1-首页-ANDROID-手机" transform="translate(-1453.000000, -502.000000)">
            <g id="编组-5" transform="translate(1092.000000, 325.000000)">
                <g id="编组" transform="translate(361.000000, 177.000000)">
                    <g id="文件管理">
                        <path d="M23.0749668,-9.32256277e-16 L44.9250332,9.32256277e-16 C52.9487019,-5.41667744e-16 55.858278,0.8354305 58.7916113,2.40419433 C61.7249447,3.97295817 64.0270418,6.27505533 65.5958057,9.20838867 C67.1645695,12.141722 68,15.0512981 68,23.0749668 L68,44.9250332 C68,52.9487019 67.1645695,55.858278 65.5958057,58.7916113 C64.0270418,61.7249447 61.7249447,64.0270418 58.7916113,65.5958057 C55.858278,67.1645695 52.9487019,68 44.9250332,68 L23.0749668,68 C15.0512981,68 12.141722,67.1645695 9.20838867,65.5958057 C6.27505533,64.0270418 3.97295817,61.7249447 2.40419433,58.7916113 C0.8354305,55.858278 3.61111829e-16,52.9487019 -6.21504185e-16,44.9250332 L6.21504185e-16,23.0749668 C-3.61111829e-16,15.0512981 0.8354305,12.141722 2.40419433,9.20838867 C3.97295817,6.27505533 6.27505533,3.97295817 9.20838867,2.40419433 C12.141722,0.8354305 15.0512981,5.41667744e-16 23.0749668,-9.32256277e-16 Z" id="Rectangle" fill="url(#linearGradient-1)"></path>
                        <g id="形状结合" fill-rule="nonzero">
                            <use fill="black" fill-opacity="1" filter="url(#filter-4)" xlink:href="#path-3"></use>
                            <use fill="url(#linearGradient-2)" xlink:href="#path-3"></use>
                        </g>
                        <g id="形状结合备份" fill-rule="nonzero">
                            <use fill="black" fill-opacity="1" filter="url(#filter-7)" xlink:href="#path-6"></use>
                            <use fill="url(#linearGradient-5)" xlink:href="#path-6"></use>
                        </g>
                    </g>
                </g>
            </g>
        </g>
    </g>
</svg>