<?xml version="1.0" encoding="UTF-8"?>
<svg width="68px" height="68px" viewBox="0 0 68 68" version="1.1" xmlns="http://www.w3.org/2000/svg" xmlns:xlink="http://www.w3.org/1999/xlink">
    <title>视频</title>
    <defs>
        <linearGradient x1="50%" y1="2.37536127%" x2="50%" y2="100%" id="linearGradient-1">
            <stop stop-color="#C165DD" offset="0%"></stop>
            <stop stop-color="#794FED" offset="100%"></stop>
        </linearGradient>
        <linearGradient x1="50%" y1="0%" x2="50%" y2="100%" id="linearGradient-2">
            <stop stop-color="#FFFFFF" offset="0%"></stop>
            <stop stop-color="#FFFFFF" stop-opacity="0.6" offset="100%"></stop>
        </linearGradient>
        <path d="M43.8571429,19 C46.1451796,19 48,21.2385762 48,24 L48,44 C48,46.7614238 46.1451796,49 43.8571429,49 L23.1428571,49 C20.8548204,49 19,46.7614238 19,44 L19,24 C19,21.2385762 20.8548204,19 23.1428571,19 L43.8571429,19 Z M26,42 L21,42 L21,45.2 C21,46.1941125 21.8058875,47 22.8,47 L22.8,47 L26,47 L26,42 Z M46,42 L41,42 L41,47 L44.2,47 C45.1941125,47 46,46.1941125 46,45.2 L46,45.2 L46,42 Z M26,35 L21,35 L21,40 L26,40 L26,35 Z M46,35 L41,35 L41,40 L46,40 L46,35 Z M26,28 L21,28 L21,33 L26,33 L26,28 Z M46,28 L41,28 L41,33 L46,33 L46,28 Z M26,21 L22.8,21 C21.8058875,21 21,21.8058875 21,22.8 L21,22.8 L21,26 L26,26 L26,21 Z M44.2,21 L41,21 L41,26 L46,26 L46,22.8 C46,21.8058875 45.1941125,21 44.2,21 L44.2,21 Z" id="path-3"></path>
        <filter x="-1.7%" y="-1.7%" width="103.4%" height="106.7%" filterUnits="objectBoundingBox" id="filter-4">
            <feOffset dx="0" dy="1" in="SourceAlpha" result="shadowOffsetOuter1"></feOffset>
            <feColorMatrix values="0 0 0 0 0.37968714   0 0 0 0 0.173917205   0 0 0 0 0.867272418  0 0 0 1 0" type="matrix" in="shadowOffsetOuter1"></feColorMatrix>
        </filter>
    </defs>
    <g id="页面-1备份" stroke="none" stroke-width="1" fill="none" fill-rule="evenodd">
        <g id="1-首页-ANDROID-手机" transform="translate(-1453.000000, -342.000000)">
            <g id="编组-5" transform="translate(1092.000000, 325.000000)">
                <g id="deepin-movie-48px" transform="translate(361.000000, 17.000000)">
                    <g id="视频">
                        <path d="M23.0749668,-9.32256277e-16 L44.9250332,9.32256277e-16 C52.9487019,-5.41667744e-16 55.858278,0.8354305 58.7916113,2.40419433 C61.7249447,3.97295817 64.0270418,6.27505533 65.5958057,9.20838867 C67.1645695,12.141722 68,15.0512981 68,23.0749668 L68,44.9250332 C68,52.9487019 67.1645695,55.858278 65.5958057,58.7916113 C64.0270418,61.7249447 61.7249447,64.0270418 58.7916113,65.5958057 C55.858278,67.1645695 52.9487019,68 44.9250332,68 L23.0749668,68 C15.0512981,68 12.141722,67.1645695 9.20838867,65.5958057 C6.27505533,64.0270418 3.97295817,61.7249447 2.40419433,58.7916113 C0.8354305,55.858278 3.61111829e-16,52.9487019 -6.21504185e-16,44.9250332 L6.21504185e-16,23.0749668 C-3.61111829e-16,15.0512981 0.8354305,12.141722 2.40419433,9.20838867 C3.97295817,6.27505533 6.27505533,3.97295817 9.20838867,2.40419433 C12.141722,0.8354305 15.0512981,5.41667744e-16 23.0749668,-9.32256277e-16 Z" id="Rectangle" fill="url(#linearGradient-1)"></path>
                        <g id="形状结合" fill-rule="nonzero">
                            <use fill="black" fill-opacity="1" filter="url(#filter-4)" xlink:href="#path-3"></use>
                            <use fill="url(#linearGradient-2)" xlink:href="#path-3"></use>
                        </g>
                    </g>
                </g>
            </g>
        </g>
    </g>
</svg>