<?xml version="1.0" encoding="UTF-8"?>
<svg width="68px" height="68px" viewBox="0 0 68 68" version="1.1" xmlns="http://www.w3.org/2000/svg" xmlns:xlink="http://www.w3.org/1999/xlink">
    <title>电子书</title>
    <defs>
        <linearGradient x1="50%" y1="0%" x2="50%" y2="98.0310694%" id="linearGradient-1">
            <stop stop-color="#FFCB52" offset="0%"></stop>
            <stop stop-color="#FF7B02" offset="100%"></stop>
        </linearGradient>
        <linearGradient x1="50%" y1="0%" x2="50%" y2="100%" id="linearGradient-2">
            <stop stop-color="#FFFFFF" offset="0%"></stop>
            <stop stop-color="#FFFFFF" stop-opacity="0.6" offset="100%"></stop>
        </linearGradient>
        <path d="M43.4,18 C45.3882251,18 47,19.6117749 47,21.6 L47,40.5 C47,42.9142733 45.0987635,44.8844891 42.7118357,44.995102 L42.5,45 L24.9,45 C24.4411788,45 24.0625482,45.3433367 24.0070123,45.7871059 L24,45.9 L24,46.1 C24,46.5588212 24.3433367,46.9374518 24.7871059,46.9929877 L24.9,47 L45.3869902,47.0004188 C45.7524296,47.2390064 46,47.4882869 46,48 C46,48.6666667 45.5833333,49 44.75,49 L23.6,49 C21.6117749,49 20,47.3882251 20,45.4 L20,21.6 C20,19.6117749 21.6117749,18 23.6,18 L43.4,18 Z M40,23 L26,23 L26,27 L40,27 L40,23 Z" id="path-3"></path>
        <filter x="-1.9%" y="-1.6%" width="103.7%" height="106.5%" filterUnits="objectBoundingBox" id="filter-4">
            <feOffset dx="0" dy="1" in="SourceAlpha" result="shadowOffsetOuter1"></feOffset>
            <feColorMatrix values="0 0 0 0 0.934103261   0 0 0 0 0.459443539   0 0 0 0 0.00720868561  0 0 0 1 0" type="matrix" in="shadowOffsetOuter1"></feColorMatrix>
        </filter>
    </defs>
    <g id="页面-1备份" stroke="none" stroke-width="1" fill="none" fill-rule="evenodd">
        <g id="1-首页-ANDROID-手机" transform="translate(-1288.000000, -502.000000)">
            <g id="编组-5" transform="translate(1092.000000, 325.000000)">
                <g id="编组-4" transform="translate(196.000000, 177.000000)">
                    <g id="电子书">
                        <path d="M23.0749668,-9.32256277e-16 L44.9250332,9.32256277e-16 C52.9487019,-5.41667744e-16 55.858278,0.8354305 58.7916113,2.40419433 C61.7249447,3.97295817 64.0270418,6.27505533 65.5958057,9.20838867 C67.1645695,12.141722 68,15.0512981 68,23.0749668 L68,44.9250332 C68,52.9487019 67.1645695,55.858278 65.5958057,58.7916113 C64.0270418,61.7249447 61.7249447,64.0270418 58.7916113,65.5958057 C55.858278,67.1645695 52.9487019,68 44.9250332,68 L23.0749668,68 C15.0512981,68 12.141722,67.1645695 9.20838867,65.5958057 C6.27505533,64.0270418 3.97295817,61.7249447 2.40419433,58.7916113 C0.8354305,55.858278 3.61111829e-16,52.9487019 -6.21504185e-16,44.9250332 L6.21504185e-16,23.0749668 C-3.61111829e-16,15.0512981 0.8354305,12.141722 2.40419433,9.20838867 C3.97295817,6.27505533 6.27505533,3.97295817 9.20838867,2.40419433 C12.141722,0.8354305 15.0512981,5.41667744e-16 23.0749668,-9.32256277e-16 Z" id="Rectangle" fill="url(#linearGradient-1)"></path>
                        <g id="形状结合" fill-rule="nonzero">
                            <use fill="black" fill-opacity="1" filter="url(#filter-4)" xlink:href="#path-3"></use>
                            <use fill="url(#linearGradient-2)" xlink:href="#path-3"></use>
                        </g>
                    </g>
                </g>
            </g>
        </g>
    </g>
</svg>