<?xml version="1.0" encoding="UTF-8"?>
<svg width="16px" height="16px" viewBox="0 0 16 16" version="1.1" xmlns="http://www.w3.org/2000/svg" xmlns:xlink="http://www.w3.org/1999/xlink">
    <title>苹果</title>
    <g id="组件" stroke="none" stroke-width="1" fill="none" fill-rule="evenodd">
        <g id="ios" fill="#C5CFE0">
            <g id="苹果">
                <path d="M12.631068,10.0854139 C13.0291262,10.6443276 13.4854369,11.0056943 14,11.1695138 C13.776699,11.8537013 13.4223301,12.5667981 12.9368932,13.3088042 C12.1893204,14.4266316 11.4514563,14.9855453 10.723301,14.9855453 C10.4514563,14.9855453 10.0485437,14.8939991 9.51456311,14.7109067 C9.01941748,14.5278143 8.58737864,14.4362681 8.2184466,14.4362681 C7.84951456,14.4362681 7.44174757,14.5326325 6.99514563,14.7253614 C6.52912621,14.9084538 6.14563107,15 5.84466019,15 C4.97087379,15 4.11165049,14.2628121 3.26699029,12.7884363 C2.4223301,11.3333333 2,9.90232151 2,8.49540079 C2,7.19448095 2.32038835,6.12965396 2.96116505,5.30091984 C3.62135922,4.47218572 4.4368932,4.05781866 5.40776699,4.05781866 C5.62135922,4.05781866 5.8592233,4.08431888 6.12135922,4.13731932 C6.38349515,4.19031975 6.65533981,4.2890933 6.9368932,4.43363995 C7.23786408,4.59745948 7.48543689,4.71068769 7.67961165,4.77332457 C7.87378641,4.83596145 8.02427184,4.86727989 8.13106796,4.86727989 C8.25728155,4.86727989 8.45145631,4.83837057 8.71359223,4.78055191 C8.97572816,4.72273325 9.23786408,4.61673237 9.5,4.46254928 C9.7815534,4.30836618 10.0242718,4.19272887 10.2281553,4.11563732 C10.4320388,4.03854577 10.6407767,4 10.8543689,4 C11.5339806,4 12.1456311,4.18309242 12.6893204,4.54927727 C12.9805825,4.74200613 13.276699,5.02628121 13.5776699,5.4021025 C13.131068,5.78756023 12.8058252,6.12483574 12.6019417,6.41392904 C12.223301,6.95356986 12.0339806,7.5413929 12.0339806,8.17739816 C12.0339806,8.88085852 12.2330097,9.51686378 12.631068,10.0854139 L12.631068,10.0854139 Z M9.9035533,3.3375 C9.54822335,3.6125 9.22335025,3.79166667 8.92893401,3.875 C8.82741117,3.9 8.69796954,3.92291667 8.54060914,3.94375 C8.38324873,3.96458333 8.20304569,3.98333333 8,4 C8.01015228,3.26666667 8.24365482,2.63333333 8.70050761,2.1 C9.15736041,1.56666667 9.90862944,1.2 10.9543147,1 C10.9746193,1.08333333 10.9898477,1.14166667 11,1.175 L11,1.3125 C11,1.6125 10.9137056,1.95 10.7411168,2.325 C10.5583756,2.69166667 10.2791878,3.02916667 9.9035533,3.3375 Z" id="形状"></path>
            </g>
        </g>
    </g>
</svg>