<?xml version="1.0" encoding="UTF-8"?>
<svg width="26px" height="10px" viewBox="0 0 26 10" version="1.1" xmlns="http://www.w3.org/2000/svg" xmlns:xlink="http://www.w3.org/1999/xlink">
    <title>编组 16</title>
    <g id="页面-深色" stroke="none" stroke-width="1" fill="none" fill-rule="evenodd">
        <g id="8-首页-手机" transform="translate(-881.000000, -722.000000)">
            <g id="编组-15" transform="translate(852.000000, 699.000000)">
                <g id="编组-13">
                    <g id="编组-10" transform="translate(0.000000, 19.000000)">
                        <g id="编组-16" transform="translate(29.000000, 4.000000)">
                            <g id="闪电" transform="translate(22.000000, 1.000000)" fill="#C5CFE0">
                                <path d="M2.71044551,0.104707687 C2.7831813,0.00295185493 2.90959253,-0.0289074961 3.01456922,0.028059557 C3.11954591,0.0850266101 3.17493857,0.215544357 3.14783446,0.342062854 L2.44626758,3.65323682 L3.68834004,3.65323682 C3.7447358,3.65321482 3.8000792,3.67024554 3.84846676,3.70251232 L3.88304665,3.72923211 C3.94759618,3.78673678 3.98898403,3.87045778 3.99809889,3.96196439 C4.00721375,4.053471 3.98330838,4.14526155 3.93164542,4.21712885 L1.28986602,7.89543991 C1.2171412,7.99703865 1.09087763,8.02885313 0.98597685,7.97201049 C0.881076068,7.91516786 0.825607955,7.78487835 0.85247707,7.65843176 L1.55404396,4.34725778 L0.311659976,4.34725778 C0.255264213,4.34727978 0.199920809,4.33024907 0.151533244,4.2979823 L0.116953348,4.27126248 C0.0524038175,4.21375782 0.0110159656,4.13003681 0.00190110896,4.03853021 C-0.00721374766,3.9470236 0.0166916216,3.85523304 0.0683545762,3.78336575 L2.71044551,0.104707687 Z" id="路径"></path>
                            </g>
                            <rect id="矩形" fill="#C5CFE0" x="0" y="3" width="2" height="4" rx="1"></rect>
                            <rect id="矩形" stroke="#C5CFE0" x="2.5" y="0.5" width="17" height="9" rx="2"></rect>
                        </g>
                    </g>
                </g>
            </g>
        </g>
    </g>
</svg>