<?xml version="1.0" encoding="UTF-8"?>
<svg width="186px" height="134px" viewBox="0 0 186 134" version="1.1" xmlns="http://www.w3.org/2000/svg" xmlns:xlink="http://www.w3.org/1999/xlink">
    <title>编组 3</title>
    <g id="页面-深色" stroke="none" stroke-width="1" fill="none" fill-rule="evenodd" opacity="0.3">
        <g id="3-断开立即连接" transform="translate(-1064.000000, -394.000000)">
            <g id="编组-3" transform="translate(1064.000000, 394.000000)">
                <g id="电脑" transform="translate(39.716418, 3.000000)" fill-rule="nonzero">
                    <g id="路径-3" transform="translate(0.283582, 0.000000)" fill="#252525" stroke="#C5CFE0" stroke-linejoin="round" stroke-width="3">
                        <path d="M135,-1.5 L8,-1.5 C5.37664744,-1.5 3.00164744,-0.436676281 1.28248558,1.28248558 C-0.436676281,3.00164744 -1.5,5.37664744 -1.5,8 L-1.5,102 C-1.5,104.623353 -0.436676281,106.998353 1.28248558,108.717514 C3.00164744,110.436676 5.37664744,111.5 8,111.5 L66.4998929,111.5 L66.4991071,122.500216 L29.8029351,122.505493 C28.8685673,122.557811 28.0315463,122.975758 27.4340592,123.619662 C26.8544966,124.244249 26.5,125.080705 26.5,126 C26.5,126.966498 26.8917508,127.841498 27.5251263,128.474874 C28.1585017,129.108249 29.0335017,129.5 30,129.5 L114.197085,129.494511 C115.155744,129.440673 116.012114,129.005873 116.616688,128.30349 C117.153976,127.67928 117.499016,126.834994 117.490449,125.740372 C117.423375,124.831235 117.009836,124.018179 116.380338,123.434059 C115.755751,122.854497 114.919295,122.5 114,122.5 L76.4991071,122.5 L76.4998929,111.5 L135,111.5 C137.623353,111.5 139.998353,110.436676 141.717514,108.717514 C143.436676,106.998353 144.5,104.623353 144.5,102 L144.5,8 C144.5,5.37664744 143.436676,3.00164744 141.717514,1.28248558 C139.998353,-0.436676281 137.623353,-1.5 135,-1.5 Z" id="路径-2"></path>
                    </g>
                    <path d="M7.28358209,96.1433028 L7.28358209,13.8558057 C7.28358209,10.0798087 7.76494396,7 10.9962136,7 L132.570951,7 C135.799933,7 136.283582,10.0798087 136.283582,13.8558057 L136.283582,96.1424114 C136.283582,99.9192999 135.799933,103 132.570951,103 L10.9962136,103 C7.76570623,103 7.28358209,99.9201913 7.28358209,96.1433028 Z" id="路径" fill="#C5CFE0"></path>
                </g>
                <g id="手机" transform="translate(3.000000, 58.417910)" fill-rule="nonzero">
                    <path d="M3.6864,-0.917910448 C2.25421519,-0.917910448 0.957615187,-0.337402854 0.0190613901,0.601150942 C-0.919492407,1.53970474 -1.5,2.83630474 -1.5,4.26848955 L-1.5,65.8956896 C-1.5,67.3278744 -0.919492407,68.6244744 0.0190613901,69.5630282 C0.957615187,70.501582 2.25421519,71.0820896 3.6864,71.0820896 L33.3136,71.0820896 C34.7457848,71.0820896 36.0423848,70.501582 36.9809386,69.5630282 C37.9194924,68.6244744 38.5,67.3278744 38.5,65.8956896 L38.5,4.26848955 C38.5,2.83630474 37.9194924,1.53970474 36.9809386,0.601150942 C36.0423848,-0.337402854 34.7457848,-0.917910448 33.3136,-0.917910448 L3.6864,-0.917910448 Z" id="路径" stroke="#C5CFE0" stroke-width="3" fill="#252525" stroke-linejoin="round"></path>
                    <path d="M15,5.58208955 C15,5.01732271 15.2672322,4.58208955 15.6666667,4.58208955 L20.3333333,4.58208955 C20.7327678,4.58208955 21,5.01732271 21,5.58208955 L21,5.58208955 C21,6.14685639 20.7327678,6.58208955 20.3333333,6.58208955 L15.6666667,6.58208955 C15.2672322,6.58208955 15,6.14685639 15,5.58208955 L15,5.58208955 L15,5.58208955 Z" id="路径" fill="#C5CFE0"></path>
                    <path d="M34,59.8793868 C34,60.185143 33.6074236,60.5820896 32.9550562,60.5820896 L4.04494382,60.5820896 C3.39257642,60.5820896 3,60.185143 3,59.5280355 L3,9.63614361 C3,8.97903612 3.39257642,8.58208955 4.04494382,8.58208955 L32.9550562,8.58208955 C33.6074236,8.58208955 34,8.97903612 34,9.63614361 L34,59.8793868 Z" id="路径" fill="#C5CFE0"></path>
                    <rect id="矩形" fill="#C5CFE0" x="15" y="61.5820896" width="6" height="6" rx="3"></rect>
                </g>
                <g id="编组-2" transform="translate(44.395522, 93.649254) rotate(-180.000000) translate(-44.395522, -93.649254) translate(24.895522, 74.149254)">
                    <circle id="椭圆形" stroke="#E6E6E6" stroke-width="3" fill="#FFFFFF" cx="19.2537313" cy="19.2537313" r="19.2537313"></circle>
                    <circle id="椭圆形" stroke="#C5CFE0" stroke-width="3" fill="#252525" fill-rule="nonzero" stroke-linejoin="round" cx="19.2537313" cy="19.2537313" r="19.2537313"></circle>
                    <path d="M22.0705548,20.4339718 L17.2256058,25.9710834 C16.8619248,26.3867209 16.2301622,26.42884 15.8145247,26.0651589 C15.7978227,26.0505447 15.7816118,26.0353786 15.765919,26.0196857 L10.2288344,20.4825741 C9.83831109,20.0920488 9.83831263,19.4588839 10.2288379,19.0683605 C10.4163741,18.8808252 10.6707273,18.775469 10.9359429,18.775469 L12.5217377,18.775469 L12.5217377,18.775469 L12.5217377,11.775469 C12.5217377,11.2231843 12.9694529,10.775469 13.5217377,10.775469 L18.5217377,10.775469 C19.0740224,10.775469 19.5217377,11.2231843 19.5217377,11.775469 L19.5217377,18.775469 L19.5217377,18.775469 L21.3179765,18.775469 C21.8702613,18.775469 22.3179765,19.2231843 22.3179765,19.775469 C22.3179765,20.0176914 22.2300589,20.2516806 22.0705548,20.4339718 Z" id="形状" fill="#C5CFE0" fill-rule="nonzero" transform="translate(16.126960, 18.544032) scale(1, -1) rotate(-270.000000) translate(-16.126960, -18.544032) "></path>
                    <rect id="矩形" fill="#C5CFE0" fill-rule="nonzero" x="25.8955224" y="15.1492537" width="3" height="7" rx="1"></rect>
                </g>
            </g>
        </g>
    </g>
</svg>