<?xml version="1.0" encoding="UTF-8"?>
<svg width="84px" height="244px" viewBox="0 0 84 244" version="1.1" xmlns="http://www.w3.org/2000/svg" xmlns:xlink="http://www.w3.org/1999/xlink">
    <title>手机</title>
    <g id="页面-深色" stroke="none" stroke-width="1" fill="none" fill-rule="evenodd" opacity="0.3">
        <g id="2检测设备" transform="translate(-1115.000000, -384.000000)" fill-rule="nonzero">
            <g id="手机" transform="translate(1115.000000, 384.000000)">
                <g id="usb" transform="translate(32.000000, 139.000000)" fill="#C5CFE0">
                    <path d="M6,0 L13.5,0 C15.1568542,-3.04359188e-16 16.5,1.34314575 16.5,3 L16.5,10.5 L16.5,10.5 L3,10.5 L3,3 C3,1.34314575 4.34314575,3.04359188e-16 6,0 Z" id="矩形-2"></path>
                    <rect id="矩形-2" transform="translate(9.500000, 24.500000) rotate(-180.000000) translate(-9.500000, -24.500000) " x="-0.487179487" y="11.5098039" width="19" height="25" rx="3"></rect>
                    <rect id="矩形-2" transform="translate(9.500000, 42.500000) rotate(-180.000000) translate(-9.500000, -42.500000) " x="5.53333333" y="29.5098039" width="7" height="25" rx="3"></rect>
                    <rect id="矩形-2" transform="translate(10.000000, 78.000000) rotate(-180.000000) translate(-10.000000, -78.000000) " x="8" y="52" width="4" height="52" rx="2"></rect>
                </g>
                <g transform="translate(3.000000, 3.000000)">
                    <path d="M5.5296,-1.5 C3.58842956,-1.5 1.83102956,-0.713185219 0.558922171,0.558922171 C-0.713185219,1.83102956 -1.5,3.58842956 -1.5,5.5296 L-1.5,138.4704 C-1.5,140.41157 -0.713185219,142.16897 0.558922171,143.441078 C1.83102956,144.713185 3.58842956,145.5 5.5296,145.5 L72.4704,145.5 C74.4115704,145.5 76.1689704,144.713185 77.4410778,143.441078 C78.7131852,142.16897 79.5,140.41157 79.5,138.4704 L79.5,5.5296 C79.5,3.58842956 78.7131852,1.83102956 77.4410778,0.558922171 C76.1689704,-0.713185219 74.4115704,-1.5 72.4704,-1.5 L5.5296,-1.5 Z" id="路径" stroke="#C5CFE0" stroke-width="3" fill="#252525" stroke-linejoin="round"></path>
                    <path d="M31,8.5 C31,7.0880829 32.0243902,6 33.5555556,6 L51.4444444,6 C52.9756098,6 54,7.0880829 54,8.5 L54,8.5 C54,9.9119171 52.9756098,11 51.4444444,11 L33.5555556,11 C32.0243902,11 31,9.9119171 31,8.5 L31,8.5 L31,8.5 Z" id="路径" fill="#C5CFE0"></path>
                    <path d="M72,124.513514 C72,125.160305 71.1641921,126 69.7752809,126 L8.2247191,126 C6.83580786,126 6,125.160305 6,123.77027 L6,18.2297297 C6,16.8396947 6.83580786,16 8.2247191,16 L69.7752809,16 C71.1641921,16 72,16.8396947 72,18.2297297 L72,124.513514 Z" id="路径" fill="#C5CFE0"></path>
                    <rect id="矩形" fill="#C5CFE0" x="24" y="6" width="5" height="5" rx="2.25"></rect>
                    <rect id="矩形" fill="#C5CFE0" x="33" y="129" width="12" height="12" rx="6"></rect>
                </g>
            </g>
        </g>
    </g>
</svg>