<?xml version="1.0" encoding="UTF-8"?>
<svg width="40px" height="40px" viewBox="0 0 40 40" version="1.1" xmlns="http://www.w3.org/2000/svg" xmlns:xlink="http://www.w3.org/1999/xlink">
    <title>video-dark</title>
    <g id="页面-深色" stroke="none" stroke-width="1" fill="none" fill-rule="evenodd" fill-opacity="0.25">
        <g id="11视频首页" transform="translate(-833.000000, -350.000000)" fill="#FFFFFF" fill-rule="nonzero">
            <g id="编组" transform="translate(768.000000, 284.000000)">
                <g id="编组-7">
                    <g id="编组-2">
                        <g id="视频" transform="translate(65.000000, 66.000000)">
                            <path d="M32.037037,9 L31.0740741,9 L31.0740741,11 L28.1851852,11 L28.1851852,9 L11.8148148,9 L11.8148148,11 L8.92592593,11 L8.92592593,9 L7.96296296,9 C7.3537415,9 7,9.38333333 7,10 L7,31 C7,31.6166667 7.3537415,32 7.96296296,32 L8.92592593,32 L8.92592593,31 L11.8148148,31 L11.8148148,32 L28.1851852,32 L28.1851852,31 L31.0740741,31 L31.0740741,32 L32.037037,32 C32.6462585,32 33,31.6166667 33,31 L33,10 C32.8231293,9.38333333 32.4693878,9 32.037037,9 Z M12,28 L9,28 L9,25 L12,25 L12,28 Z M12,23 L9,23 L9,20 L12,20 L12,23 Z M12,17 L9,17 L9,14 L12,14 L12,17 Z M31,28 L28,28 L28,25 L31,25 L31,28 Z M31,23 L28,23 L28,20 L31,20 L31,23 Z M18,16.7098475 C18.1717369,16.7098475 18.3405796,16.754076 18.4902612,16.8382719 L23.4505324,19.6284245 C23.9318903,19.8991883 24.1026105,20.5089034 23.8318467,20.9902612 C23.7420579,21.1498857 23.6101569,21.2817868 23.4505324,21.3715755 L18.4902612,24.1617281 C18.0089034,24.4324919 17.3991883,24.2617716 17.1284245,23.7804138 C17.0442285,23.6307321 17,23.4618894 17,23.2901525 L17,17.7098475 C17,17.1575627 17.4477153,16.7098475 18,16.7098475 Z M31,14 L31,17 L28,17 L28,14 L31,14 Z" id="形状"></path>
                        </g>
                    </g>
                </g>
            </g>
        </g>
    </g>
</svg>